<?xml version="1.0" encoding="UTF-8"?>
<svg width="52px" height="59px" viewBox="0 0 52 59" version="1.1" xmlns="http://www.w3.org/2000/svg" xmlns:xlink="http://www.w3.org/1999/xlink">
    <!-- Generator: Sketch 53.2 (72643) - https://sketchapp.com -->
    <title>Group 5</title>
    <desc>Created with Sketch.</desc>
    <defs>
        <linearGradient x1="14.7253082%" y1="38.5006477%" x2="93.4196517%" y2="42.5281805%" id="linearGradient-1">
            <stop stop-color="#DD1402" offset="0%"></stop>
            <stop stop-color="#CC1100" offset="100%"></stop>
        </linearGradient>
        <linearGradient x1="51.6258645%" y1="68.8371406%" x2="58.1719555%" y2="50%" id="linearGradient-2">
            <stop stop-color="#FF5602" offset="0%"></stop>
            <stop stop-color="#DC1402" offset="100%"></stop>
        </linearGradient>
        <linearGradient x1="-19.9617801%" y1="89.5745899%" x2="100%" y2="37.6967723%" id="linearGradient-3">
            <stop stop-color="#FDEE0F" offset="0%"></stop>
            <stop stop-color="#FFA100" offset="100%"></stop>
        </linearGradient>
        <linearGradient x1="79.560792%" y1="74.0514408%" x2="27.124235%" y2="38.6933667%" id="linearGradient-4">
            <stop stop-color="#FFA000" offset="0%"></stop>
            <stop stop-color="#FF4100" offset="100%"></stop>
        </linearGradient>
    </defs>
    <g id="Welcome" stroke="none" stroke-width="1" fill="none" fill-rule="evenodd">
        <g id="Homepage" transform="translate(-501.000000, -218.000000)">
            <g id="Header">
                <g id="Group-6" transform="translate(100.000000, 218.000000)">
                    <g id="Group-5" transform="translate(401.000000, 0.000000)">
                        <path d="M11.1812148,29.4479927 C8.0251984,31.8756874 7.08905103,35.6970595 8.92299634,38.4086954 C10.0454288,40.0683022 11.9043957,41.4439187 15.8096397,41.4439187 C19.452266,41.4439187 23.0690293,40.0234881 25.5986564,37.0380468 C28.0592384,34.1340919 29.4584975,29.6925338 31.1537786,27.6360244 C32.6371025,25.8366357 34.6935384,26.4950682 35.4647682,26.8495764 C36.2359979,27.2040846 37.2343712,28.0865401 37.386945,29.1702529 C37.7351602,31.6435817 35.8595461,35.8502249 33.2271671,39.4746133 C31.3069391,42.1184773 28.6663654,44.8060066 25.5986564,46.5454972 C22.6404734,48.2228829 19.2709685,49 16.5179838,49 C14.0428854,49 10.3105057,48.7216577 7.20034265,46.9069894 C3.73346549,44.8841913 0.986470108,41.0965549 0.515322388,36.6359373 C0.362651557,35.1905176 0.221041626,31.8457507 1.86568664,28.9084501 C2.98889728,26.9024201 5.23413405,24.5285809 7.3803743,23 C8.50050793,24.7029966 9.51206855,26.5709649 11.1812148,29.4479927 Z" id="Rectangle" fill="url(#linearGradient-1)"></path>
                        <path d="M19.1152685,0 C8.92572035,1.64958615e-15 6.06821221,9.92167572 6.46377839,11.7616089 C6.50808693,11.9677053 5.96132391,16.9195143 8.73099157,22.4215062 C12.3074772,29.5262557 19.4570488,37.6941864 21.1047871,39 C22.4113867,38.3973745 24.3457471,36.9356344 26.2712683,33.6556106 C24.9889582,32.0496034 21.9310961,28.9127752 19.7305979,25.9146693 C17.2789354,22.5743604 15.730823,19.4250591 15.5535845,19.1472492 C14.7933339,17.955606 13.7887289,14.6999181 14.0992155,12.164462 C14.3826936,9.84955862 15.9424308,8.33517061 16.5847832,7.95479816 C17.9992827,7.11719466 20.0744954,7.52115811 20.8247943,7.95167397 C21.9414212,8.59238604 23.5207052,10.5508558 22.5945562,12.7015995 C21.7046754,14.7681192 18.078345,16.864289 16.9951069,17.6428751 C17.9992827,20.4900929 19.002694,21.8329366 20.776123,24.0569467 C23.3009586,23.0178847 26.5398778,20.3992431 28.4841693,17.5358368 C29.6963515,15.750626 30.1867893,13.7539535 30.356904,12.3420926 C30.7727654,8.89066494 29.349496,5.27696944 26.8491802,3.00425296 C24.5293227,0.89556786 21.2210873,0 19.1152685,0 Z" id="Rectangle" fill="url(#linearGradient-2)"></path>
                        <path d="M48.564635,50.0977972 C48.7211913,50.5135822 48.9748328,50.8010763 49.3255593,50.9602795 C49.6762859,51.1194827 50.173529,51.1974908 50.8172887,51.1943039 C51.3228581,51.8046813 51.5730389,52.6308341 51.567831,53.6727622 C51.5600193,55.2356544 50.5554472,56.5729002 49.2938906,57.2962377 C48.032334,58.0195753 46.2873434,58.327457 44.5951124,58.0730106 C43.4669583,57.9033797 42.3039024,57.2639426 41.1059447,56.1546994 C42.4774786,56.0565388 43.2938972,55.8544941 43.5552006,55.5485652 C43.7307055,55.3430874 43.7292905,52.7909784 45.1755973,51.2222329 C45.6469646,50.7109615 46.7766438,50.3361496 48.564635,50.0977972 Z" id="Rectangle" fill="url(#linearGradient-3)" transform="translate(46.336928, 54.129470) scale(-1, 1) rotate(23.000000) translate(-46.336928, -54.129470) "></path>
                        <path d="M34.6904701,41 C38.635123,44.3767947 40.9408727,46.5165012 41.607719,47.4191195 C41.9583801,47.8937612 43.1030916,49.2747476 41.8720406,50.9363952 C41.3348725,51.6614536 40.1305646,52.3527901 38.4722203,51.7993657 C37.0682487,51.3308309 34.0536991,49.4895955 29.4285714,46.2756597 L34.6904701,41 Z" id="Rectangle" fill="url(#linearGradient-4)"></path>
                    </g>
                </g>
            </g>
        </g>
    </g>
</svg>