<?xml version="1.0" encoding="UTF-8"?>
<svg width="32px" height="29px" viewBox="0 0 32 29" version="1.1" xmlns="http://www.w3.org/2000/svg" xmlns:xlink="http://www.w3.org/1999/xlink">
    <!-- Generator: Sketch 56 (81588) - https://sketch.com -->
    <title>Cautious-3</title>
    <desc>Created with Sketch.</desc>
    <g id="Welcome" stroke="none" stroke-width="1" fill="none" fill-rule="evenodd">
        <g id="Performance-Click-only---desktop" transform="translate(-421.000000, -609.000000)" fill="#424242" fill-rule="nonzero" stroke="#424242">
            <g id="Group-14" transform="translate(172.000000, 540.000000)">
                <g id="Group_4683" transform="translate(8.000000, 6.000000)">
                    <g id="Cautious" transform="translate(213.500000, 9.000000)">
                        <g id="Group-2" transform="translate(28.000000, 0.000000)">
                            <g id="Cautious-3" transform="translate(0.000000, 54.000000)">
                                <path d="M15.3782705,27.9991728 C15.7433739,28.0096888 16.1087767,27.9969966 16.4722705,27.9611728 C19.8772705,27.3381728 23.7012705,25.9761728 23.9112705,25.3121728 C24.1172705,24.6921728 23.8522705,24.3991728 22.6792705,23.9471728 C21.2610841,23.4861547 20.1300185,22.40441 19.6062705,21.0081728 C19.479912,20.6057461 19.3941512,20.1916822 19.3502705,19.7721728 C19.3502705,19.3421728 18.7852705,18.9051728 18.2302705,18.9051728 C17.2805258,18.7089279 16.3949718,18.2781828 15.6542705,17.6521728 C15.2686951,17.268604 14.9496673,16.8235196 14.7102705,16.3351728 L14.3262705,15.5161728 L20.3092705,9.51617278 C23.6402705,6.15617278 26.4582705,3.47717278 26.6602705,3.41617278 C26.721711,3.40295389 26.7844268,3.3965817 26.8472705,3.39717278 C27.4196378,3.41782469 27.9539499,3.68918649 28.3082705,4.13917278 C28.6101681,4.80036986 28.5175602,5.57480377 28.0682705,6.14617278 C27.740928,6.55595026 27.6641727,7.1120426 27.8682705,7.59517278 C28.0991454,7.97193227 28.5217319,8.18747455 28.9622705,8.15317278 C29.4622705,8.15317278 29.6622705,8.04717278 30.0622705,7.55917278 C30.8298173,6.63254746 31.1364592,5.40818589 30.8962705,4.22917278 C30.6376682,2.98964267 29.8327748,1.93335799 28.7062705,1.35517278 C28.1349861,1.10167973 27.5139763,0.980006911 26.8892705,0.999172781 C26.3332223,0.977634174 25.7795672,1.08296201 25.2702705,1.30717278 C24.9842705,1.45817278 22.1062705,4.19917278 18.6802705,7.63317278 L12.6492705,13.6701728 L12.0252705,13.4771728 C10.4502808,12.9351129 9.33697861,11.5231579 9.17727051,9.86517278 C9.04827051,8.95917278 8.78327051,8.73917278 7.51327051,8.48417278 C5.79308766,8.15552117 4.4198287,6.85872776 3.99327051,5.16017278 C3.70627051,4.30917278 3.45127051,3.99317278 3.05127051,3.99317278 C2.9362933,3.9958868 2.8223677,4.01577322 2.71327051,4.05217278 C2.05327051,4.26217278 0.700270511,7.82217278 0.213270511,10.6201728 C-0.158068921,12.973424 -0.0437214573,15.3777836 0.549270511,17.6851728 C1.01192252,19.2870261 1.72470658,20.8057421 2.66127051,22.1851728 C3.11027051,22.8071728 3.19327051,23.0311728 3.04527051,23.2291728 C2.74000468,23.6036589 2.59418556,24.083138 2.63927051,24.5641728 C2.68515136,24.8434536 2.84297791,25.0919311 3.07627051,25.2521728 C3.27675556,25.3995856 3.51843926,25.48038 3.76727051,25.4831728 C4.08690672,25.4715584 4.39420786,25.3568466 4.64327051,25.1561728 L5.10727051,24.8351728 L6.01927051,25.4611728 C8.27311129,27.1380461 11.0173677,28.0242085 13.8262705,27.9821728 C14.3852705,27.9911728 14.9342705,27.9991728 15.3782705,27.9991728 Z M26.9602705,2.55917278 C26.6376739,2.55846993 26.3183843,2.62416598 26.0222705,2.75217278 C25.7432705,2.87617278 22.9222705,5.58917278 19.4632705,9.06217278 L13.4002705,15.1621728 L13.5922705,15.8691728 C14.2274475,17.9245659 15.9785856,19.4381827 18.1042705,19.7691728 C18.4472705,19.8511728 18.5522705,19.9691728 18.5522705,20.2691728 C18.7100214,21.3246019 19.1603824,22.3147033 19.8522705,23.1271728 C20.6320753,23.9268498 21.6004259,24.5176262 22.6682705,24.8451728 C22.8122705,24.8451728 22.8892705,24.8681728 22.8982705,24.9141728 C22.9212705,25.0391728 22.4352705,25.3081728 21.6282705,25.6141728 C19.2885156,26.6062893 16.7853772,27.1568916 14.2452705,27.2381806 C13.6001091,27.2388956 12.9558569,27.1897492 12.3182705,27.0911728 C10.0345585,26.6823567 7.87513115,25.754884 6.00627051,24.3801728 C5.70091251,24.124603 5.36822307,23.9035926 5.01427051,23.7211728 C4.7778308,23.8561318 4.55771491,24.0178633 4.35827051,24.2031728 C4.17227747,24.4061388 3.92756078,24.5459769 3.65827051,24.6031728 C3.59932431,24.6090636 3.54312185,24.5769479 3.51827051,24.5231728 C3.46527051,24.3981728 3.55627051,24.0931728 3.98727051,23.6431728 L4.46727051,23.1431728 L3.77927051,22.2431728 C1.44598133,19.1137523 0.432149234,15.1944871 0.955270511,11.3261728 C1.26444323,9.39915929 1.82348622,7.52066729 2.61827051,5.73817278 C2.81827051,5.35917278 2.93127051,5.17817278 3.00527051,5.17817278 C3.04927051,5.17817278 3.08127051,5.24117278 3.11427051,5.33617278 C3.62091862,7.36445854 5.25474567,8.91682809 7.30627051,9.31917278 L8.21827051,9.52817278 L8.42627051,10.4431728 C8.60797532,11.4177561 9.05504474,12.3233139 9.71827051,13.0601728 C10.4069732,13.7493301 11.2810667,14.2235501 12.2342705,14.4251728 L12.9862705,14.6181728 L19.1932705,8.38817278 C24.9992705,2.57717278 25.4552705,2.15617278 26.1522705,1.96517278 C26.4346046,1.89263639 26.7247733,1.85502193 27.0162705,1.85317278 C27.6462019,1.85670604 28.2599852,2.05280964 28.7752705,2.41517278 C29.5502423,2.99084948 30.023903,3.88562344 30.0642705,4.85017278 C30.164919,5.67585063 29.8780801,6.50166608 29.2872705,7.08717278 C29.1132705,7.24117278 29.0162705,7.29917278 28.9302705,7.29917278 C28.8568052,7.29308356 28.7891264,7.25689167 28.7432705,7.19917278 C28.5972705,7.05217278 28.6002705,6.95717278 28.7592705,6.73417278 C29.4587947,5.94590224 29.5929026,4.80518668 29.0952705,3.87617278 C28.6972068,3.06211262 27.8663926,2.54961508 26.9602705,2.55917278 Z" id="Shape-13" transform="translate(15.488135, 14.499586) rotate(180.000000) translate(-15.488135, -14.499586) "></path>
                            </g>
                        </g>
                    </g>
                </g>
            </g>
        </g>
    </g>
</svg>