<?xml version="1.0" encoding="UTF-8"?>
<svg width="24px" height="29px" viewBox="0 0 24 29" version="1.1" xmlns="http://www.w3.org/2000/svg" xmlns:xlink="http://www.w3.org/1999/xlink">
    <!-- Generator: Sketch 56 (81588) - https://sketch.com -->
    <title>Defensive-3</title>
    <desc>Created with Sketch.</desc>
    <g id="Welcome" stroke="none" stroke-width="1" fill="none" fill-rule="evenodd">
        <g id="Performance-Click-only---desktop" transform="translate(-216.000000, -548.000000)" fill="#FF9E55" fill-rule="nonzero" stroke="#FF9E55" stroke-width="0.5">
            <g id="Group-14" transform="translate(172.000000, 540.000000)">
                <g id="Group_4683" transform="translate(8.000000, 6.000000)">
                    <g id="Defensive" transform="translate(7.500000, 3.000000)">
                        <g id="Group_4688" transform="translate(29.000000, 0.000000)">
                            <g id="Defensive-3" transform="translate(0.500000, 0.000000)">
                                <path d="M8.384,27 L13.324,27 L13.324,23.4 L16.917,23.4 L16.917,27 L21.857,27 L21.857,18.3 L20.435,17.6 L19.013,16.88 L19.013,7.88 L20.435,6.45 L21.857,5.025 L21.857,1.77635684e-15 L-5.32907052e-15,1.77635684e-15 L-5.32907052e-15,5.025 L1.348,6.375 L2.695,7.725 L2.695,16.89 L1.348,17.55 L-5.32907052e-15,18.21 L-5.32907052e-15,27 L4.791,27 L4.791,23.4 L8.384,23.4 L8.384,27 Z M9.132,22.8 L4.192,22.8 L4.192,26.25 L0.6,26.25 L0.6,18.675 L2.022,17.955 L3.444,17.25 L18.264,17.25 L19.686,17.955 L21.108,18.675 L21.108,26.25 L17.516,26.25 L17.516,22.8 L12.725,22.8 L12.725,26.25 L9.132,26.25 L9.132,22.8 Z M18.264,8.25 L18.264,16.5 L3.443,16.5 L3.443,8.25 L18.264,8.25 Z M21.108,0.6 L21.108,4.725 L19.731,6.1 L18.339,7.5 L3.368,7.5 L1.991,6.12 L0.6,4.725 L0.6,0.6 L21.108,0.6 Z" id="Shape-14" transform="translate(10.928500, 13.500000) rotate(180.000000) translate(-10.928500, -13.500000) "></path>
                            </g>
                        </g>
                    </g>
                </g>
            </g>
        </g>
    </g>
</svg>