<?xml version="1.0" encoding="UTF-8"?>
<svg width="45px" height="35px" viewBox="0 0 45 35" version="1.1" xmlns="http://www.w3.org/2000/svg" xmlns:xlink="http://www.w3.org/1999/xlink">
    <!-- Generator: Sketch 53.2 (72643) - https://sketchapp.com -->
    <title></title>
    <desc>Created with Sketch.</desc>
    <g id="Welcome" stroke="none" stroke-width="1" fill="none" fill-rule="evenodd">
        <g id="Homepage" transform="translate(-100.000000, -604.000000)" fill="#CC1100" fill-rule="nonzero">
            <g id="Group-44" transform="translate(100.000000, 604.000000)">
                <path d="M45,11.2855114 L45,31.0227273 C45,33.2102273 43.1919643,35 40.9821429,35 L4.01785714,35 C1.80803571,35 0,33.2102273 0,31.0227273 L0,11.2855114 C0.753348214,12.1058239 1.60714286,12.8267045 2.53627232,13.4481534 C6.70479911,16.2571023 10.9235491,19.0660511 15.0167411,22.0241477 C17.1261161,23.5653409 19.7377232,25.4545455 22.4748884,25.4545455 L22.5251116,25.4545455 C25.2622768,25.4545455 27.8738839,23.5653409 29.9832589,22.0241477 C34.0764509,19.0909091 38.2952009,16.2571023 42.4888393,13.4481534 C43.3928571,12.8267045 44.2466518,12.1058239 45,11.2855114 Z M45,3.97727273 C45,6.76136364 42.9157366,9.27201705 40.7059152,10.7883523 C36.7885045,13.4730114 32.8459821,16.1576705 28.953683,18.8671875 C27.3214286,19.9857955 24.5591518,22.2727273 22.5251116,22.2727273 L22.4748884,22.2727273 C20.4408482,22.2727273 17.6785714,19.9857955 16.046317,18.8671875 C12.1540179,16.1576705 8.21149554,13.4730114 4.31919643,10.7883523 C2.53627232,9.59517045 0,6.78622159 0,4.52414773 C0,2.08806818 1.33091518,0 4.01785714,0 L40.9821429,0 C43.1668527,0 45,1.78977273 45,3.97727273 Z" id=""></path>
            </g>
        </g>
    </g>
</svg>