<?xml version="1.0" encoding="UTF-8"?>
<svg width="375px" height="123px" viewBox="0 0 375 123" version="1.1" xmlns="http://www.w3.org/2000/svg" xmlns:xlink="http://www.w3.org/1999/xlink">
    <!-- Generator: Sketch 53.2 (72643) - https://sketchapp.com -->
    <title>Group 37</title>
    <desc>Created with Sketch.</desc>
    <defs>
        <linearGradient x1="34.0584974%" y1="52.5249499%" x2="3.84054538%" y2="47.1587414%" id="linearGradient-1">
            <stop stop-color="#F87B62" offset="0%"></stop>
            <stop stop-color="#CC1100" offset="100%"></stop>
        </linearGradient>
        <linearGradient x1="63.7534716%" y1="49.3286373%" x2="6.65617951%" y2="51.4884154%" id="linearGradient-2">
            <stop stop-color="#F7F7F7" stop-opacity="0.5" offset="0%"></stop>
            <stop stop-color="#FBFBFB" offset="100%"></stop>
        </linearGradient>
    </defs>
    <g id="Welcome" stroke="none" stroke-width="1" fill="none" fill-rule="evenodd">
        <g id="Homepage-mobile" transform="translate(0.000000, -3652.000000)">
            <g id="Group-37" transform="translate(187.500000, 3713.500000) scale(-1, 1) translate(-187.500000, -3713.500000) translate(0.000000, 3652.000000)">
                <polygon id="Triangle" fill-opacity="0.243362107" fill="#FD8C77" transform="translate(187.500000, 61.500000) scale(-1, -1) translate(-187.500000, -61.500000) " points="375 57 6.71462885e-13 123 6.71462885e-13 0.652 375 1.32871492e-12"></polygon>
                <polygon id="Triangle" fill="url(#linearGradient-1)" transform="translate(187.500000, 68.615172) scale(-1, -1) translate(-187.500000, -68.615172) " points="375 71.2303447 0 121.348 0 15.8823447 375 15.8823447"></polygon>
                <polygon id="Triangle" fill="url(#linearGradient-2)" transform="translate(187.500000, 83.896697) scale(1, -1) translate(-187.500000, -83.896697) " points="375 46 0 121.793393 0 46"></polygon>
                <polygon id="Triangle" fill="#F7F7F7" transform="translate(187.500000, 90.386706) scale(1, -1) translate(-187.500000, -90.386706) " points="375 59.4254113 0 122.348 0 58.4254113"></polygon>
            </g>
        </g>
    </g>
</svg>