<?xml version="1.0" encoding="UTF-8"?>
<svg width="88px" height="88px" viewBox="0 0 88 88" version="1.1" xmlns="http://www.w3.org/2000/svg" xmlns:xlink="http://www.w3.org/1999/xlink">
    <!-- Generator: Sketch 53.2 (72643) - https://sketchapp.com -->
    <title>Group 45</title>
    <desc>Created with Sketch.</desc>
    <defs>
        <circle id="path-1" cx="30" cy="30" r="30"></circle>
        <filter x="-37.5%" y="-32.5%" width="175.0%" height="175.0%" filterUnits="objectBoundingBox" id="filter-2">
            <feOffset dx="0" dy="3" in="SourceAlpha" result="shadowOffsetOuter1"></feOffset>
            <feGaussianBlur stdDeviation="7" in="shadowOffsetOuter1" result="shadowBlurOuter1"></feGaussianBlur>
            <feColorMatrix values="0 0 0 0 0   0 0 0 0 0   0 0 0 0 0  0 0 0 0.3 0" type="matrix" in="shadowBlurOuter1"></feColorMatrix>
        </filter>
    </defs>
    <g id="Welcome" stroke="none" stroke-width="1" fill="none" fill-rule="evenodd">
        <g id="Homepage" transform="translate(-52.000000, -1809.000000)">
            <g id="Group-39" transform="translate(66.000000, 1820.000000)">
                <g id="Group-45">
                    <g id="Oval">
                        <use fill="black" fill-opacity="1" filter="url(#filter-2)" xlink:href="#path-1"></use>
                        <use fill="#F7F7F7" fill-rule="evenodd" xlink:href="#path-1"></use>
                    </g>
                    <g id="Balloon-logo" transform="translate(15.000000, 10.000000)">
                        <path d="M14.6686878,35.8224949 L14.947756,36.1000543 C16.0921268,33.7699847 18.9482858,27.6781541 20.730901,21.4743838 C22.4719795,15.4151675 23.159984,10.9378895 23.1608891,8.98378541 C23.1629354,4.56535083 20.4406321,2.32431236 20.4406321,2.32431236 C20.4406321,2.32431236 28.0297775,5.34497134 26.1347725,14.2686327 C25.1585707,18.8656099 17.4035929,33.6991108 15.4490558,36.5986441 L16.024049,37.1705287 C16.4007232,37.5254544 16.6315524,38.00364 16.6315524,38.529669 C16.6315524,39.6247322 15.6312077,40 14.39722,40 C13.1632322,40 12.1628875,39.6247322 12.1628875,38.529669 C12.1628875,37.9924275 12.403662,37.5050908 12.7946756,37.1480014 L13.3954506,36.549854 C11.3887237,33.5366795 3.71326727,18.840393 2.74242046,14.2686327 C0.847415526,5.34497134 8.43656085,2.32431236 8.43656085,2.32431236 C8.43656085,2.32431236 5.71425757,4.56535083 5.71630392,8.98378541 C5.71720894,10.9378895 6.40521348,15.4151675 8.14629196,21.4743838 C9.91505758,27.6299555 12.7407507,33.6753202 13.9024557,36.0450663 L14.1244619,35.824031 C12.8971587,31.1667757 7.98922629,12.0302391 8.98522431,7.51121551 C10.018064,2.28720528 14.4101533,1 14.4101533,1 C14.4101533,1 18.724618,2.28372243 19.8196412,7.51121551 C20.7706083,12.0236424 15.8894718,31.1618156 14.6686878,35.8224949 Z" id="Combined-Shape" fill="#348FCD"></path>
                        <path d="M29.2741582,18.9330526 C28.8102072,21.5689922 25.0590978,27.2619968 24.8822321,27.4700427 C24.8822321,27.4700427 26.3424132,24.2939642 27.3439281,21.1241908 C28.0262989,18.9645018 28.3988222,16.8568752 28.518123,16.177031 C29.0115567,13.3651634 28.7786593,11.9886818 28.7786593,11.9886818 C28.7786593,11.9886818 30.0216247,14.6863191 29.2741582,18.9330526 Z" id="Polygon" fill="#3590CE" transform="translate(27.197803, 19.729362) rotate(5.000000) translate(-27.197803, -19.729362) "></path>
                        <path d="M4.93688858,18.9508072 C4.48325804,21.5935037 0.878268406,27.5112363 0.705327644,27.7198172 C0.705327644,27.7198172 2.07022673,24.3254845 3.04949283,21.1475803 C3.71670459,18.9823517 4.08094131,16.8693224 4.19758827,16.1877354 C4.68004557,13.3686598 4.45229717,11.9886554 4.45229717,11.9886554 C4.45229717,11.9886554 5.66772782,14.6931875 4.93688858,18.9508072 Z" id="Polygon" fill="#3590CE" transform="translate(2.938048, 19.854236) scale(-1, 1) rotate(5.000000) translate(-2.938048, -19.854236) "></path>
                    </g>
                </g>
            </g>
        </g>
    </g>
</svg>