<?xml version="1.0" encoding="UTF-8"?>
<svg width="768px" height="746px" viewBox="0 0 768 746" version="1.1" xmlns="http://www.w3.org/2000/svg" xmlns:xlink="http://www.w3.org/1999/xlink">
    <!-- Generator: Sketch 53.2 (72643) - https://sketchapp.com -->
    <title>Group 38</title>
    <desc>Created with Sketch.</desc>
    <defs>
        <linearGradient x1="95.941877%" y1="50%" x2="2.92857094%" y2="50%" id="linearGradient-1">
            <stop stop-color="#F87B61" offset="0%"></stop>
            <stop stop-color="#D42311" offset="100%"></stop>
        </linearGradient>
    </defs>
    <g id="Welcome" stroke="none" stroke-width="1" fill="none" fill-rule="evenodd">
        <g id="Hompage-iPad" transform="translate(0.000000, -928.000000)">
            <g id="Group-38" transform="translate(0.000000, 928.000000)">
                <polygon id="Rectangle" fill-opacity="0.24" fill="#FD8C77" points="1.00974196e-26 -4.45865567e-13 768 243.9975 768 316 -2.04636308e-12 523"></polygon>
                <polygon id="Rectangle" fill="#FBFBFB" transform="translate(384.000000, 528.964286) scale(-1, 1) translate(-384.000000, -528.964286) " points="-9.09494702e-13 312.428571 768 446 768 523 2.50111043e-12 745.5"></polygon>
                <polygon id="Rectangle" fill="url(#linearGradient-1)" points="0 41.995 768 245 768 316 0 446"></polygon>
                <polygon id="Rectangle" fill="#F7F7F7" transform="translate(384.000000, 507.511940) scale(-1, 1) translate(-384.000000, -507.511940) " points="2.38742359e-12 316 768 446 768 523 3.06954462e-12 699.02388"></polygon>
            </g>
        </g>
    </g>
</svg>