<?xml version="1.0" encoding="UTF-8"?>
<svg width="39px" height="29px" viewBox="0 0 39 29" version="1.1" xmlns="http://www.w3.org/2000/svg" xmlns:xlink="http://www.w3.org/1999/xlink">
    <!-- Generator: Sketch 56 (81588) - https://sketch.com -->
    <title>Group-2</title>
    <desc>Created with Sketch.</desc>
    <g id="Welcome" stroke="none" stroke-width="1" fill="none" fill-rule="evenodd">
        <g id="Performance-table---desktop" transform="translate(-850.000000, -576.000000)" fill="#5C686F" fill-rule="nonzero" stroke="#FFFFFF">
            <g id="Group-5254" transform="translate(191.000000, 560.000000)">
                <g id="Group_4683" transform="translate(0.500000, 0.000000)">
                    <g id="Adventurous" transform="translate(628.500000, 0.000000)">
                        <g id="Group-4" transform="translate(31.000000, 16.000000)">
                            <g id="Group-2">
                                <path d="M9.182,27.9963775 C9.46933661,27.9980339 9.75590276,27.9664915 10.036,27.9023775 C10.171,27.8773775 10.778,27.6913775 11.892,27.3323775 C12.6961051,27.0423635 13.5384062,26.8718818 14.392,26.8263775 C14.8637177,26.80857 15.329063,26.9397764 15.722,27.2013775 C15.9137336,27.3458716 16.1338986,27.4481154 16.368,27.5013775 C16.3818069,27.5023063 16.3956124,27.4995452 16.408,27.4933775 C16.5394741,26.0610581 16.5835558,24.6220587 16.54,23.1843775 L16.54,18.9613775 L17.299,17.9673775 C19.558,14.9933775 21.387,12.6673775 21.463,12.6673775 C21.7249596,12.8375458 21.9694788,13.0331612 22.193,13.2513775 C22.4252253,13.4720723 22.6799512,13.6678092 22.953,13.8353775 C23.5344602,13.1615741 24.07605,12.4543687 24.575,11.7173775 C25.0687782,10.9765001 25.6095543,10.2680466 26.194,9.59637751 C26.236,9.59637751 26.838,9.90237751 27.581,10.3123775 C27.9893329,10.5914659 28.4446034,10.7947117 28.925,10.9123775 C28.9736086,10.9156557 29.0214016,10.8986386 29.057,10.8653775 C29.165,10.7573775 30.973,8.43037751 32.929,5.86537751 L36.64,1.05137751 L27.553,1.00737751 C25.21,0.996377511 21.964,0.996377511 18.415,0.996377511 C14.866,0.996377511 11.6,0.996377511 9.233,1.00737751 L0,1.05137751 L3.463,5.28737751 C5.376,7.62337751 6.985,9.53937751 7.042,9.56737751 C7.04860625,9.56864677 7.05539375,9.56864677 7.062,9.56737751 C7.38023882,9.47400436 7.68335594,9.33524407 7.962,9.15537751 L8.762,8.70237751 L9.273,9.33137751 C10.007,10.2403775 12.173,13.3203775 14.21,16.3433775 L15.948,18.9293775 L15.948,20.0543775 C15.948,20.8803775 15.93,21.0883775 15.793,21.0883775 C15.7560959,21.0859787 15.7198899,21.077181 15.686,21.0623775 C15.2922256,20.9673026 14.8905268,20.9087216 14.486,20.8873775 C14.32,20.8753775 14.186,20.8703775 14.07,20.8703775 C13.2464368,20.9241382 12.4364962,21.1073873 11.67,21.4133775 C10.803868,21.741605 9.89409559,21.9404071 8.97,22.0033775 C8.54702645,22.0083768 8.12980382,21.9051039 7.758,21.7033775 C7.57639383,21.5932218 7.37490911,21.5198311 7.165,21.4873775 C6.765,21.4873775 6.75,22.1813775 6.75,24.3773775 C6.75,26.9043775 6.76,26.9873775 7.1,27.3423775 C7.69443841,27.800467 8.43239041,28.0322733 9.182,27.9963775 Z M14.458,26.1823775 C13.4968481,26.219619 12.5472613,26.4054884 11.643,26.7333775 C10.696,27.0433775 9.867,27.2893775 9.671,27.3173775 C9.5408667,27.3395428 9.40899849,27.3499182 9.277,27.3483775 C8.79948252,27.3446395 8.32607406,27.2597641 7.877,27.0973775 L7.483,26.9513775 L7.483,22.2963775 L7.805,22.4863775 C8.10924161,22.6195822 8.44030114,22.6801794 8.772,22.6633775 C9.77857777,22.6176821 10.7724684,22.4201177 11.72,22.0773775 C12.6267389,21.7508664 13.5765686,21.5594853 14.539,21.5093775 C14.8618713,21.491977 15.1838883,21.5566557 15.475,21.6973775 C15.798,21.8733775 15.811,21.9653775 15.811,24.1513775 L15.811,26.4263775 L15.402,26.3093775 C15.0957784,26.2185559 14.7773366,26.1757147 14.458,26.1823775 L14.458,26.1823775 Z M21.388,11.7883775 C20.4932416,12.7923625 19.6495105,13.8406849 18.86,14.9293775 C17.584,16.6023775 16.396,18.0543775 16.318,18.0703775 C15.6440395,17.3083705 15.0333486,16.4926667 14.492,15.6313775 C12.353,12.4643775 10.511,9.87237751 9.686,8.86737751 C9.326,8.43537751 9,8.03437751 8.97,7.99137751 C8.97,7.99137751 8.961,7.98537751 8.951,7.98537751 C8.63907112,8.08589328 8.34105568,8.22532553 8.064,8.40037751 L7.2,8.86737751 L4.281,5.28737751 L1.344,1.70837751 L18.305,1.70837751 C27.114,1.70837751 35.17,1.76337751 35.205,1.82437751 C35.145,1.96837751 33.49,4.14237751 31.978,6.10037751 C30.466,8.05837751 28.814,10.1673775 28.762,10.1673775 L28.76,10.1673775 C28.2636111,9.96248855 27.7821104,9.72324186 27.319,9.45137751 C26.8780814,9.18272354 26.4058936,8.96913073 25.913,8.81537751 C25.9035748,8.81404436 25.8940454,8.81697649 25.887,8.82337751 C25.829,8.89537751 25.165,9.81137751 24.426,10.8393775 C23.672,11.9033775 23.002,12.8053775 22.95,12.8703775 C22.9379448,12.8810869 22.9220864,12.8864932 22.906,12.8853775 C22.6262286,12.7882032 22.3752567,12.6224931 22.176,12.4033775 C21.9444364,12.1616492 21.6790007,11.9548249 21.388,11.7893775 L21.388,11.7883775 Z" id="Shape-2" transform="translate(18.320000, 14.498189) rotate(180.000000) translate(-18.320000, -14.498189) "></path>
                                <path d="M17.1635399,26.994 L17.1635399,26.994 L19.0185399,24.555 C20.0555399,23.176 20.9615399,21.983 21.0785399,21.838 C21.1475399,21.738 21.1965399,21.682 21.2705399,21.682 C21.3985399,21.682 21.5925399,21.828 22.1155399,22.247 C22.3805179,22.4938449 22.6723413,22.7101968 22.9855399,22.892 L22.9915399,22.892 C23.0205399,22.834 26.0565399,19.202 26.3075399,18.904 C26.3141,18.8973997 26.3232781,18.8940956 26.3325399,18.895 C26.8460598,19.1146526 27.3247718,19.4080784 27.7535399,19.766 C28.6075399,20.398 28.9435399,20.623 29.1285399,20.623 C29.1843707,20.6233545 29.2373426,20.59834 29.2725399,20.555 C29.7335399,20.066 33.8275399,14.518 33.7907891,14.432 L33.7907891,14.432 C33.5918344,14.4875599 33.4038822,14.5761273 33.2345399,14.694 C32.9895399,14.839 32.0645399,15.338 31.1745399,15.794 L29.5525399,16.627 L28.3405399,15.827 C27.8582997,15.4732555 27.320178,15.2028425 26.7485399,15.027 C26.4945399,15.027 25.8615399,15.442 24.6305399,16.415 C23.7665399,17.106 22.8675399,17.803 22.8045399,17.803 C22.7615399,17.803 21.9475399,17.19 20.9635399,16.403 C19.9425399,15.57 19.1625399,14.955 19.1025399,14.932 L19.0965399,14.932 C18.511356,15.4800251 17.9799358,16.0827702 17.5095399,16.732 C16.7095399,17.742 15.9495399,18.686 15.8435399,18.792 C15.8277582,18.8102505 15.804662,18.8205154 15.7805399,18.82 C15.6035399,18.82 15.1805399,18.38 13.9735399,16.936 L12.2845399,14.884 L11.0285399,15.395 C10.5234546,15.6216291 9.99397369,15.7893988 9.4505399,15.895 C9.2425399,15.892 7.6025399,15.585 6.2665399,15.322 C4.7635399,15.013 3.4955399,14.781 3.40250484,14.781 L3.40250484,14.781 C3.3955399,14.802 4.4375399,15.875 5.8425399,17.281 L8.3115399,19.749 L9.1115399,19.208 C9.41876587,18.9867876 9.75275271,18.805346 10.1055399,18.668 C10.2125399,18.683 11.9395399,20.668 13.7285399,22.832 C15.5795399,25.085 17.1455399,26.976 17.1605399,26.995 L17.1635399,26.994 Z M21.1275399,20.784 C21.1025788,20.7814126 21.0782645,20.7929908 21.0645399,20.814 C21.0465399,20.837 20.9485399,20.966 20.7875399,21.181 L20.7875399,21.181 C20.4385399,21.646 19.7875399,22.511 19.0655399,23.455 C17.6605399,25.314 17.2805399,25.785 17.0735399,25.785 C17.0173547,25.7794311 16.9661409,25.7503736 16.9325399,25.705 C16.8025399,25.575 15.4065399,23.894 13.7325399,21.877 C12.6105399,20.532 11.5615399,19.275 10.9975399,18.601 L10.5175399,18.025 C10.4175399,17.925 10.3445399,17.857 10.2425399,17.857 C10.0955399,17.857 9.8755399,17.992 9.3935399,18.288 C9.08325324,18.4987428 8.75096609,18.6751132 8.4025399,18.814 C7.82243929,18.3771204 7.28352641,17.888082 6.7925399,17.353 C6.31031884,16.9233016 5.88428286,16.4344354 5.5245399,15.898 C5.52659787,15.893903 5.53098113,15.8915122 5.5355399,15.892 C5.6495399,15.892 6.5945399,16.052 7.6685399,16.272 L9.5965399,16.632 L10.7365399,16.179 C11.1495778,15.99724 11.581097,15.8607767 12.0235399,15.772 C12.032827,15.7706869 12.0422528,15.7706869 12.0515399,15.772 C12.7281817,16.422874 13.3577641,17.120962 13.9355399,17.861 C14.8725399,18.989 15.6595399,19.906 15.6885399,19.906 C15.7175399,19.906 16.4285399,19.046 17.3835399,17.861 C17.9955399,17.088 19.0285399,15.789 19.0635399,15.772 L19.0635399,15.772 C19.7228701,16.2141853 20.3571769,16.6925861 20.9635399,17.205 L22.8025399,18.682 L24.7165399,17.149 C25.7585399,16.309 26.6875399,15.6 26.7475399,15.6 C27.2426506,15.8622624 27.7209133,16.1551649 28.1795399,16.477 L29.5235399,17.353 L30.5315399,16.842 C30.855402,16.6657259 31.1936105,16.5171952 31.5425399,16.398 C31.5495399,16.398 31.5535399,16.398 31.5535399,16.404 C31.5535399,16.456 30.9195399,17.326 30.2935399,18.159 C29.6675399,18.992 29.0125399,19.832 28.9685399,19.832 C28.9245399,19.832 27.0565399,18.5 26.5025399,18.054 C26.4946275,18.0485135 26.485164,18.0457095 26.4755399,18.046 C26.3125399,18.046 25.7225399,18.657 24.6175399,19.968 C24.0759527,20.6978294 23.4457935,21.3575484 22.7415399,21.932 C22.7379453,21.9330282 22.7341345,21.9330282 22.7305399,21.932 C22.6485399,21.877 22.2585399,21.575 21.8685399,21.246 C21.6633775,21.0340147 21.4092569,20.8757045 21.1285399,20.785 L21.1275399,20.784 Z" id="Shape-3" transform="translate(18.596770, 20.713500) rotate(180.000000) translate(-18.596770, -20.713500) "></path>
                            </g>
                        </g>
                    </g>
                </g>
            </g>
        </g>
    </g>
</svg>