<?xml version="1.0" encoding="UTF-8"?>
<svg width="1000px" height="520px" viewBox="0 0 1000 520" version="1.1" xmlns="http://www.w3.org/2000/svg" xmlns:xlink="http://www.w3.org/1999/xlink">
    <!-- Generator: Sketch 53.2 (72643) - https://sketchapp.com -->
    <title>Group</title>
    <desc>Created with Sketch.</desc>
    <defs>
        <linearGradient x1="88.8692125%" y1="50%" x2="3.89027567%" y2="37.5%" id="linearGradient-1">
            <stop stop-color="#F5574A" offset="0%"></stop>
            <stop stop-color="#B91001" offset="100%"></stop>
        </linearGradient>
        <linearGradient x1="3.66954083%" y1="37.5%" x2="86.8348725%" y2="50%" id="linearGradient-2">
            <stop stop-color="#B81001" offset="0%"></stop>
            <stop stop-color="#D81806" offset="100%"></stop>
        </linearGradient>
        <linearGradient x1="10.3345789%" y1="50%" x2="95.7649284%" y2="37.5%" id="linearGradient-3">
            <stop stop-color="#EA1906" offset="0%"></stop>
            <stop stop-color="#F55648" offset="100%"></stop>
        </linearGradient>
        <linearGradient x1="96.7333777%" y1="37.5%" x2="14.0413333%" y2="50%" id="linearGradient-4">
            <stop stop-color="#F55547" offset="0%"></stop>
            <stop stop-color="#F9B5AF" offset="100%"></stop>
        </linearGradient>
        <linearGradient x1="45.8482047%" y1="8.43233974%" x2="54.1668525%" y2="92.9665737%" id="linearGradient-5">
            <stop stop-color="#D81806" offset="0%"></stop>
            <stop stop-color="#EA1906" offset="100%"></stop>
        </linearGradient>
        <linearGradient x1="45.9288283%" y1="6.13622157%" x2="54.2535859%" y2="92.2051462%" id="linearGradient-6">
            <stop stop-color="#F9B5AF" offset="0%"></stop>
            <stop stop-color="#F5574A" offset="100%"></stop>
        </linearGradient>
    </defs>
    <g id="Welcome" stroke="none" stroke-width="1" fill="none" fill-rule="evenodd">
        <g id="iPad" transform="translate(-12.000000, -837.000000)" fill-rule="nonzero">
            <g id="Group" transform="translate(12.000000, 837.000000)">
                <path d="M0,260 L40,260 C40,381.502645 138.497355,480 260,480 C381.502645,480 480,381.502645 480,260 L520,260 C520,403.594035 403.594035,520 260,520 C116.405965,520 0,403.594035 0,260 Z" id="Path" fill="url(#linearGradient-1)"></path>
                <path d="M0,0 L40,0 C40,121.502645 138.497355,220 260,220 C381.502645,220 480,121.502645 480,0 L520,0 C520,143.594035 403.594035,260 260,260 C116.405965,260 0,143.594035 0,0 Z" id="Path" fill="url(#linearGradient-2)" transform="translate(260.000000, 130.000000) scale(1, -1) translate(-260.000000, -130.000000) "></path>
                <path d="M480,260 L520,260 C520,381.502645 618.497355,480 740,480 C861.502645,480 960,381.502645 960,260 L1000,260 C1000,403.594035 883.594035,520 740,520 C596.405965,520 480,403.594035 480,260 Z" id="Path" fill="url(#linearGradient-3)"></path>
                <path d="M480,0 L520,0 C520,121.502645 618.497355,220 740,220 C861.502645,220 960,121.502645 960,0 L1000,0 C1000,143.594035 883.594035,260 740,260 C596.405965,260 480,143.594035 480,0 Z" id="Path" fill="url(#linearGradient-4)" transform="translate(740.000000, 130.000000) scale(1, -1) translate(-740.000000, -130.000000) "></path>
                <path d="M455.10362,158.213555 L445.297844,140.782354 L480.160245,121.170802 L489.966021,138.602002 C499.887574,156.239013 507.647757,179.799744 513.543649,209.45866 C515.480473,219.201729 515.486751,219.248735 521.882152,269.348764 C523.160714,279.364709 524.154932,286.917354 525.116274,293.819192 C526.481216,303.618623 527.691014,311.419125 528.795657,317.408224 C531.116357,329.990473 534.213878,340.093936 537.941917,347.663281 L546.778636,365.605198 L510.894802,383.278636 L502.058083,365.336719 C496.553128,354.159556 492.402253,340.620274 489.459156,324.66354 C488.228702,317.992329 486.937667,309.66803 485.49874,299.337432 C484.512278,292.255247 483.500345,284.568035 482.204126,274.413768 C476.118101,226.737309 475.959031,225.54636 474.311319,217.25765 C469.171851,191.403879 462.670258,171.66436 455.10362,158.213555 Z" id="Line-36" fill="url(#linearGradient-5)"></path>
                <path d="M463.10362,158.213555 L453.297844,140.782354 L488.160245,121.170802 L497.966021,138.602002 C507.887574,156.239013 515.647757,179.799744 521.543649,209.45866 C523.480473,219.201729 523.486751,219.248735 529.882152,269.348764 C531.160714,279.364709 532.154932,286.917354 533.116274,293.819192 C534.481216,303.618623 535.691014,311.419125 536.795657,317.408224 C539.116357,329.990473 542.213878,340.093936 545.941917,347.663281 L554.778636,365.605198 L518.894802,383.278636 L510.058083,365.336719 C504.553128,354.159556 500.402253,340.620274 497.459156,324.66354 C496.228702,317.992329 494.937667,309.66803 493.49874,299.337432 C492.512278,292.255247 491.500345,284.568035 490.204126,274.413768 C484.118101,226.737309 483.959031,225.54636 482.311319,217.25765 C477.171851,191.403879 470.670258,171.66436 463.10362,158.213555 Z" id="Line-36" fill="url(#linearGradient-6)" transform="translate(504.038240, 252.224719) scale(-1, 1) translate(-504.038240, -252.224719) "></path>
            </g>
        </g>
    </g>
</svg>