<?xml version="1.0" encoding="UTF-8"?>
<svg width="1242px" height="660px" viewBox="0 0 1242 660" version="1.1" xmlns="http://www.w3.org/2000/svg" xmlns:xlink="http://www.w3.org/1999/xlink">
    <!-- Generator: Sketch 53.2 (72643) - https://sketchapp.com -->
    <title>Group 26</title>
    <desc>Created with Sketch.</desc>
    <defs>
        <linearGradient x1="91.2552733%" y1="56.2730271%" x2="6.04451414%" y2="60.5106944%" id="linearGradient-1">
            <stop stop-color="#D91806" offset="0%"></stop>
            <stop stop-color="#B61001" offset="100%"></stop>
        </linearGradient>
        <linearGradient x1="84.5329089%" y1="48.3329427%" x2="7.17631803%" y2="51.6045368%" id="linearGradient-2">
            <stop stop-color="#F5574A" offset="0%"></stop>
            <stop stop-color="#B71001" offset="100%"></stop>
        </linearGradient>
        <linearGradient x1="15.0485428%" y1="50%" x2="93.3163964%" y2="58.9800918%" id="linearGradient-3">
            <stop stop-color="#F9B8B2" offset="0%"></stop>
            <stop stop-color="#F5574A" offset="100%"></stop>
        </linearGradient>
        <linearGradient x1="16.1050106%" y1="43.7949363%" x2="93.8108233%" y2="59.1135038%" id="linearGradient-4">
            <stop stop-color="#EF1A07" offset="0%"></stop>
            <stop stop-color="#F5574A" offset="100%"></stop>
        </linearGradient>
        <linearGradient x1="45.9418983%" y1="14.0023221%" x2="52.6143024%" y2="89.0601061%" id="linearGradient-5">
            <stop stop-color="#D71806" offset="0%"></stop>
            <stop stop-color="#EA1906" offset="100%"></stop>
        </linearGradient>
        <linearGradient x1="45.9418983%" y1="14.0023221%" x2="52.6143024%" y2="89.0601061%" id="linearGradient-6">
            <stop stop-color="#F9B8B2" offset="0%"></stop>
            <stop stop-color="#F5574A" offset="100%"></stop>
        </linearGradient>
    </defs>
    <g id="Welcome" stroke="none" stroke-width="1" fill="none" fill-rule="evenodd">
        <g id="Homepage" transform="translate(-99.000000, -970.000000)" fill-rule="nonzero">
            <g id="Group-9" transform="translate(99.000000, 970.000000)">
                <g id="Group-26">
                    <path d="M580,330 C580,191.928813 468.071187,80 330,80 C191.928813,80 80,191.928813 80,330 M0,330 C0,147.746033 147.746033,0 330,0 C512.253967,0 660,147.746033 660,330" id="Shape" fill="url(#linearGradient-1)"></path>
                    <path d="M580,660 C580,521.928813 468.071187,410 330,410 C191.928813,410 80,521.928813 80,660 M0,660 C0,477.746033 147.746033,330 330,330 C512.253967,330 660,477.746033 660,660" id="Shape" fill="url(#linearGradient-2)" transform="translate(330.000000, 495.000000) scale(1, -1) translate(-330.000000, -495.000000) "></path>
                    <path d="M1162,330 C1162,191.928813 1050.07119,80 912,80 C773.928813,80 662,191.928813 662,330 M582,330 C582,147.746033 729.746033,0 912,0 C1094.25397,0 1242,147.746033 1242,330" id="Shape" fill="url(#linearGradient-3)"></path>
                    <path d="M1162,660 C1162,521.928813 1050.07119,410 912,410 C773.928813,410 662,521.928813 662,660 M582,660 C582,477.746033 729.746033,330 912,330 C1094.25397,330 1242,477.746033 1242,660" id="Shape" fill="url(#linearGradient-4)" transform="translate(912.000000, 495.000000) scale(1, -1) translate(-912.000000, -495.000000) "></path>
                    <path d="M552.071094,214.324507 L605.739891,148.117835 C610.38713,155.473837 613.943177,160.992764 616.408031,164.674616 C618.334848,167.55278 623.773786,177.360482 630.055174,191.298976 C636.93986,206.576198 644.797488,226.671274 649.212876,244.572611 C651.870852,255.348862 656.070605,272.866369 658.293221,291.872044 C661.748784,321.420713 662.822623,354.68043 665.828286,372.339242 C669.679081,394.963354 676.134248,414.083179 681.746614,427.056935 C684.079701,432.450187 687.91559,440.493044 693.25428,451.185508 L626.240959,493.96923 C615.872619,473.566047 608.340088,457.79805 603.643367,446.665237 C587.950516,409.467886 584.46554,378.810031 583.087118,369.22576 C580.325374,350.023152 580.186693,332.141327 579.325374,311.010677 C578.607601,293.401642 573.753238,275.962946 572.728573,269.264951 C571.687525,262.45987 566.81768,251.556939 561.971408,236.097398 C560.538269,231.525704 557.238164,224.268073 552.071094,214.324507 Z" id="Path" fill="url(#linearGradient-5)"></path>
                    <path d="M549.071094,214.324507 L602.739891,148.117835 C607.38713,155.473837 610.943177,160.992764 613.408031,164.674616 C615.334848,167.55278 620.773786,177.360482 627.055174,191.298976 C633.93986,206.576198 641.797488,226.671274 646.212876,244.572611 C648.870852,255.348862 653.070605,272.866369 655.293221,291.872044 C658.748784,321.420713 659.822623,354.68043 662.828286,372.339242 C666.679081,394.963354 673.134248,414.083179 678.746614,427.056935 C681.079701,432.450187 684.91559,440.493044 690.25428,451.185508 L623.240959,493.96923 C612.872619,473.566047 605.340088,457.79805 600.643367,446.665237 C584.950516,409.467886 581.46554,378.810031 580.087118,369.22576 C577.325374,350.023152 577.186693,332.141327 576.325374,311.010677 C575.607601,293.401642 570.753238,275.962946 569.728573,269.264951 C568.687525,262.45987 563.81768,251.556939 558.971408,236.097398 C557.538269,231.525704 554.238164,224.268073 549.071094,214.324507 Z" id="Path" fill="url(#linearGradient-6)" transform="translate(619.662687, 321.043532) scale(-1, 1) translate(-619.662687, -321.043532) "></path>
                </g>
            </g>
        </g>
    </g>
</svg>