<?xml version="1.0" encoding="UTF-8"?>
<svg width="88px" height="88px" viewBox="0 0 88 88" version="1.1" xmlns="http://www.w3.org/2000/svg" xmlns:xlink="http://www.w3.org/1999/xlink">
    <!-- Generator: Sketch 53.2 (72643) - https://sketchapp.com -->
    <title>Group 47</title>
    <desc>Created with Sketch.</desc>
    <defs>
        <circle id="path-1" cx="30" cy="30" r="30"></circle>
        <filter x="-37.5%" y="-32.5%" width="175.0%" height="175.0%" filterUnits="objectBoundingBox" id="filter-2">
            <feOffset dx="0" dy="3" in="SourceAlpha" result="shadowOffsetOuter1"></feOffset>
            <feGaussianBlur stdDeviation="7" in="shadowOffsetOuter1" result="shadowBlurOuter1"></feGaussianBlur>
            <feColorMatrix values="0 0 0 0 0   0 0 0 0 0   0 0 0 0 0  0 0 0 0.3 0" type="matrix" in="shadowBlurOuter1"></feColorMatrix>
        </filter>
    </defs>
    <g id="Welcome" stroke="none" stroke-width="1" fill="none" fill-rule="evenodd">
        <g id="Homepage" transform="translate(-52.000000, -1961.000000)">
            <g id="Group-39" transform="translate(66.000000, 1972.000000)">
                <g id="Group-47">
                    <g id="Oval">
                        <use fill="black" fill-opacity="1" filter="url(#filter-2)" xlink:href="#path-1"></use>
                        <use fill="#F7F7F7" fill-rule="evenodd" xlink:href="#path-1"></use>
                    </g>
                    <path d="M23.9101179,20.014 C23.7607838,19.3046631 23.4317871,18.7726684 22.9231179,18.418 C22.4144487,18.0633316 21.8101214,17.886 21.1101179,17.886 C20.5127816,17.886 20.0017867,17.9979989 19.5771179,18.222 C19.1524491,18.4460011 18.8024526,18.7469981 18.5271179,19.125 C18.2517832,19.5030019 18.0487852,19.9346642 17.9181179,20.42 C17.7874506,20.9053358 17.7221179,21.4093307 17.7221179,21.932 C17.7221179,22.5013362 17.7874506,23.0403308 17.9181179,23.549 C18.0487852,24.0576692 18.2517832,24.5009981 18.5271179,24.879 C18.8024526,25.2570019 19.1547824,25.5579989 19.5841179,25.782 C20.0134534,26.0060011 20.5267816,26.118 21.1241179,26.118 C21.5627868,26.118 21.9524496,26.0456674 22.2931179,25.901 C22.6337863,25.7563326 22.9277834,25.555668 23.1751179,25.299 C23.4224525,25.042332 23.6161172,24.7366684 23.7561179,24.382 C23.8961186,24.0273316 23.9801178,23.6446687 24.0081179,23.234 L25.3381179,23.234 C25.2074506,24.4940063 24.7734549,25.4739965 24.0361179,26.174 C23.2987809,26.8740035 22.290791,27.224 21.0121179,27.224 C20.2374474,27.224 19.5607875,27.0910013 18.9821179,26.825 C18.4034484,26.5589987 17.9227865,26.192669 17.5401179,25.726 C17.1574493,25.259331 16.8704522,24.7086698 16.6791179,24.074 C16.4877836,23.4393302 16.3921179,22.7580036 16.3921179,22.03 C16.3921179,21.3019964 16.4947836,20.6183365 16.7001179,19.979 C16.9054523,19.3396635 17.2064493,18.7820024 17.6031179,18.306 C17.9997866,17.8299976 18.4944483,17.4543347 19.0871179,17.179 C19.6797876,16.9036653 20.3587808,16.766 21.1241179,16.766 C21.6467872,16.766 22.1414489,16.8359993 22.6081179,16.976 C23.0747869,17.1160007 23.4901161,17.321332 23.8541179,17.592 C24.2181197,17.862668 24.52145,18.200998 24.7641179,18.607 C25.0067858,19.013002 25.1654509,19.4819973 25.2401179,20.014 L23.9101179,20.014 Z M26.5264708,17.004 L27.7164708,17.004 L27.7164708,27 L26.5264708,27 L26.5264708,17.004 Z M30.4868236,18.46 L29.2968236,18.46 L29.2968236,17.004 L30.4868236,17.004 L30.4868236,18.46 Z M29.2968236,19.762 L30.4868236,19.762 L30.4868236,27 L29.2968236,27 L29.2968236,19.762 Z M36.9111764,22.086 C36.8178426,21.6286644 36.6218446,21.2740013 36.3231764,21.022 C36.0245083,20.7699987 35.6231789,20.644 35.1191764,20.644 C34.6898409,20.644 34.3305112,20.7233325 34.0411764,20.882 C33.7518416,21.0406675 33.5208439,21.2506654 33.3481764,21.512 C33.1755089,21.7733346 33.0518435,22.0743316 32.9771764,22.415 C32.9025094,22.7556684 32.8651764,23.1079982 32.8651764,23.472 C32.8651764,23.8080017 32.9048427,24.1346651 32.9841764,24.452 C33.0635101,24.7693349 33.1871756,25.0516654 33.3551764,25.299 C33.5231773,25.5463346 33.7425084,25.7446659 34.0131764,25.894 C34.2838444,26.0433341 34.6058412,26.118 34.9791764,26.118 C35.5671794,26.118 36.0268414,25.9640015 36.3581764,25.656 C36.6895114,25.3479985 36.8925094,24.9140028 36.9671764,24.354 L38.1851764,24.354 C38.0545091,25.2500045 37.7208458,25.9406642 37.1841764,26.426 C36.6475071,26.9113358 35.917181,27.154 34.9931764,27.154 C34.442507,27.154 33.9548452,27.0653342 33.5301764,26.888 C33.1055076,26.7106658 32.7508445,26.4586683 32.4661764,26.132 C32.1815083,25.8053317 31.9668438,25.4156689 31.8221764,24.963 C31.677509,24.5103311 31.6051764,24.013336 31.6051764,23.472 C31.6051764,22.930664 31.6751757,22.4243357 31.8151764,21.953 C31.9551771,21.4816643 32.1675083,21.0710017 32.4521764,20.721 C32.7368445,20.3709982 33.0938409,20.0956677 33.5231764,19.895 C33.9525119,19.6943323 34.4518402,19.594 35.0211764,19.594 C35.4318451,19.594 35.8168413,19.6429995 36.1761764,19.741 C36.5355115,19.8390005 36.8528417,19.9906656 37.1281764,20.196 C37.4035111,20.4013344 37.6298422,20.6603318 37.8071764,20.973 C37.9845106,21.2856682 38.0965095,21.6566645 38.1431764,22.086 L36.9111764,22.086 Z M39.2475292,17.004 L40.4375292,17.004 L40.4375292,22.926 L43.7415292,19.762 L45.3375292,19.762 L42.4675292,22.394 L45.5475292,27 L44.0355292,27 L41.5575292,23.22 L40.4375292,24.256 L40.4375292,27 L39.2475292,27 L39.2475292,17.004 Z M12.4527651,36.854 C12.5927658,36.7606662 12.7420976,36.6580006 12.9007651,36.546 C13.0594326,36.4339994 13.2040978,36.3080007 13.3347651,36.168 C13.4654324,36.0279993 13.5727647,35.8716675 13.6567651,35.699 C13.7407655,35.5263325 13.7827651,35.3326677 13.7827651,35.118 C13.7827651,34.8286652 13.6800995,34.5790011 13.4747651,34.369 C13.2694307,34.1589989 12.9894335,34.054 12.6347651,34.054 C12.3547637,34.054 12.093433,34.1403325 11.8507651,34.313 C11.6080972,34.4856675 11.4867651,34.7539982 11.4867651,35.118 C11.4867651,35.2673341 11.5170981,35.4166659 11.5777651,35.566 C11.6384321,35.7153341 11.7154313,35.8623326 11.8087651,36.007 C11.9020989,36.1516674 12.0047645,36.2939993 12.1167651,36.434 L12.4527651,36.854 Z M15.0147651,41.754 C14.7160969,42.220669 14.3077677,42.5706655 13.7897651,42.804 C13.2717625,43.0373345 12.7374345,43.154 12.1867651,43.154 C11.5147617,43.154 10.9734338,43.0513344 10.5627651,42.846 C10.1520964,42.6406656 9.83476621,42.3933348 9.61076509,42.104 C9.38676397,41.8146652 9.23976544,41.5160015 9.16976509,41.208 C9.09976474,40.8999985 9.06476509,40.6433344 9.06476509,40.438 C9.06476509,40.045998 9.12776446,39.7006682 9.25376509,39.402 C9.37976572,39.1033318 9.54776404,38.8350012 9.75776509,38.597 C9.96776614,38.3589988 10.215097,38.1443343 10.4997651,37.953 C10.7844332,37.7616657 11.0854302,37.5820008 11.4027651,37.414 C11.2627644,37.217999 11.1274324,37.0313342 10.9967651,36.854 C10.8660978,36.6766658 10.747099,36.4970009 10.6397651,36.315 C10.5324312,36.1329991 10.4484321,35.9416677 10.3877651,35.741 C10.3270981,35.5403323 10.2967651,35.3140013 10.2967651,35.062 C10.2967651,34.791332 10.3457646,34.5323346 10.4437651,34.285 C10.5417656,34.0376654 10.6864308,33.8183343 10.8777651,33.627 C11.0690994,33.4356657 11.3047637,33.2840006 11.5847651,33.172 C11.8647665,33.0599994 12.1867633,33.004 12.5507651,33.004 C12.8587666,33.004 13.1597636,33.0459996 13.4537651,33.13 C13.7477666,33.2140004 14.006764,33.3423325 14.2307651,33.515 C14.4547662,33.6876675 14.6344311,33.902332 14.7697651,34.159 C14.9050991,34.4156679 14.9727651,34.7119983 14.9727651,35.048 C14.9727651,35.3466682 14.9214323,35.624332 14.8187651,35.881 C14.7160979,36.137668 14.5760993,36.3733323 14.3987651,36.588 C14.2214309,36.8026677 14.0207662,36.9963325 13.7967651,37.169 C13.572764,37.3416675 13.339433,37.4979993 13.0967651,37.638 L14.9027651,39.836 C15.0894327,39.3133307 15.196765,38.7953359 15.2247651,38.282 L16.3587651,38.282 C16.330765,38.5806682 16.3004319,38.8349989 16.2677651,39.045 C16.2350983,39.2550011 16.1930987,39.4486658 16.1417651,39.626 C16.0904315,39.8033342 16.0274321,39.9783325 15.9527651,40.151 C15.8780981,40.3236675 15.7894323,40.5219989 15.6867651,40.746 L17.6327651,43 L16.0787651,43 L15.0147651,41.754 Z M12.0607651,38.17 C11.8274306,38.3006673 11.6057661,38.4359993 11.3957651,38.576 C11.185764,38.7160007 11.0014326,38.8746658 10.8427651,39.052 C10.6840976,39.2293342 10.5580989,39.4276656 10.4647651,39.647 C10.3714313,39.8663344 10.3247651,40.1253318 10.3247651,40.424 C10.3247651,40.6760013 10.3784312,40.906999 10.4857651,41.117 C10.593099,41.327001 10.7354309,41.5043326 10.9127651,41.649 C11.0900993,41.7936674 11.2930973,41.9079996 11.5217651,41.992 C11.7504329,42.0760004 11.9860972,42.118 12.2287651,42.118 C12.6861007,42.118 13.09443,42.0106677 13.4537651,41.796 C13.8131002,41.5813323 14.1140972,41.2920018 14.3567651,40.928 L12.0607651,38.17 Z M18.2331179,33.004 L19.5631179,33.004 L19.5631179,43 L18.2331179,43 L18.2331179,33.004 Z M21.2694708,35.762 L22.3894708,35.762 L22.3894708,36.91 L22.4174708,36.91 C22.9121399,36.0326623 23.6961321,35.594 24.7694708,35.594 C25.2454731,35.594 25.6421358,35.6593327 25.9594708,35.79 C26.2768057,35.9206673 26.5334698,36.1026655 26.7294708,36.336 C26.9254717,36.5693345 27.063137,36.8469984 27.1424708,37.169 C27.2218045,37.4910016 27.2614708,37.847998 27.2614708,38.24 L27.2614708,43 L26.0714708,43 L26.0714708,38.1 C26.0714708,37.6519978 25.9408054,37.2973346 25.6794708,37.036 C25.4181361,36.7746654 25.0588064,36.644 24.6014708,36.644 C24.2374689,36.644 23.9224721,36.6999994 23.6564708,36.812 C23.3904694,36.9240006 23.168805,37.0826656 22.9914708,37.288 C22.8141365,37.4933344 22.6811379,37.7336653 22.5924708,38.009 C22.5038036,38.2843347 22.4594708,38.5853317 22.4594708,38.912 L22.4594708,43 L21.2694708,43 L21.2694708,35.762 Z M31.9778236,43 L30.7038236,43 L28.0158236,35.762 L29.3458236,35.762 L31.3758236,41.796 L31.4038236,41.796 L33.3778236,35.762 L34.6238236,35.762 L31.9778236,43 Z M40.4041764,38.688 C40.3855097,38.4079986 40.3225103,38.1420013 40.2151764,37.89 C40.1078425,37.6379987 39.9631773,37.4210009 39.7811764,37.239 C39.5991755,37.0569991 39.384511,36.9123339 39.1371764,36.805 C38.8898418,36.6976661 38.6168446,36.644 38.3181764,36.644 C38.0101749,36.644 37.732511,36.6976661 37.4851764,36.805 C37.2378418,36.9123339 37.0255106,37.0593324 36.8481764,37.246 C36.6708422,37.4326676 36.5308436,37.6496654 36.4281764,37.897 C36.3255092,38.1443346 36.2648432,38.4079986 36.2461764,38.688 L40.4041764,38.688 Z M41.5521764,40.704 C41.393509,41.5160041 41.0435125,42.1273313 40.5021764,42.538 C39.9608404,42.9486687 39.2795139,43.154 38.4581764,43.154 C37.8795069,43.154 37.3778452,43.0606676 36.9531764,42.874 C36.5285076,42.6873324 36.1715112,42.4260017 35.8821764,42.09 C35.5928416,41.7539983 35.3758438,41.352669 35.2311764,40.886 C35.086509,40.419331 35.0048432,39.9106694 34.9861764,39.36 C34.9861764,38.8093306 35.0701756,38.3053356 35.2381764,37.848 C35.4061773,37.3906644 35.6418416,36.9940017 35.9451764,36.658 C36.2485113,36.3219983 36.607841,36.0606676 37.0231764,35.874 C37.4385118,35.6873324 37.8935073,35.594 38.3881764,35.594 C39.0321796,35.594 39.5665076,35.7269987 39.9911764,35.993 C40.4158452,36.2590013 40.7565085,36.5973313 41.0131764,37.008 C41.2698444,37.4186687 41.4471759,37.8666642 41.5451764,38.352 C41.6431769,38.8373358 41.6828432,39.2993311 41.6641764,39.738 L36.2461764,39.738 C36.236843,40.0553349 36.274176,40.3563319 36.3581764,40.641 C36.4421768,40.9256681 36.5775088,41.1776656 36.7641764,41.397 C36.950844,41.6163344 37.1888416,41.7913327 37.4781764,41.922 C37.7675112,42.0526673 38.1081745,42.118 38.5001764,42.118 C39.0041789,42.118 39.4171748,42.0013345 39.7391764,41.768 C40.061178,41.5346655 40.2735092,41.1800024 40.3761764,40.704 L41.5521764,40.704 Z M43.2865292,40.718 C43.2958626,40.9793346 43.3565287,41.2009991 43.4685292,41.383 C43.5805298,41.5650009 43.7275283,41.7096661 43.9095292,41.817 C44.0915302,41.9243339 44.2968614,42.0013331 44.5255292,42.048 C44.7541971,42.0946669 44.9898614,42.118 45.2325292,42.118 C45.4191968,42.118 45.6151949,42.1040001 45.8205292,42.076 C46.0258636,42.0479999 46.2148617,41.996667 46.3875292,41.922 C46.5601968,41.847333 46.7025287,41.7376674 46.8145292,41.593 C46.9265298,41.4483326 46.9825292,41.2640011 46.9825292,41.04 C46.9825292,40.7319985 46.8658637,40.4986675 46.6325292,40.34 C46.3991947,40.1813325 46.107531,40.0530005 45.7575292,39.955 C45.4075275,39.8569995 45.027198,39.7683337 44.6165292,39.689 C44.2058605,39.6096663 43.825531,39.4976674 43.4755292,39.353 C43.1255275,39.2083326 42.8338637,39.0053346 42.6005292,38.744 C42.3671947,38.4826654 42.2505292,38.118669 42.2505292,37.652 C42.2505292,37.2879982 42.3321951,36.9753346 42.4955292,36.714 C42.6588634,36.4526654 42.8688613,36.2403341 43.1255292,36.077 C43.3821972,35.9136659 43.6715276,35.7923337 43.9935292,35.713 C44.3155309,35.6336663 44.6351943,35.594 44.9525292,35.594 C45.363198,35.594 45.7411942,35.6289996 46.0865292,35.699 C46.4318643,35.7690003 46.7375279,35.8903325 47.0035292,36.063 C47.2695306,36.2356675 47.4818618,36.4689985 47.6405292,36.763 C47.7991967,37.0570015 47.8925291,37.4233311 47.9205292,37.862 L46.7305292,37.862 C46.7118625,37.6286655 46.6511964,37.4350008 46.5485292,37.281 C46.4458621,37.1269992 46.3151967,37.0033338 46.1565292,36.91 C45.9978618,36.8166662 45.8228635,36.7490002 45.6315292,36.707 C45.440195,36.6649998 45.2465302,36.644 45.0505292,36.644 C44.873195,36.644 44.6935302,36.6579999 44.5115292,36.686 C44.3295283,36.7140001 44.1638633,36.7629996 44.0145292,36.833 C43.8651952,36.9030003 43.743863,36.9963328 43.6505292,37.113 C43.5571954,37.2296672 43.5105292,37.3813324 43.5105292,37.568 C43.5105292,37.7733344 43.5828619,37.943666 43.7275292,38.079 C43.8721966,38.214334 44.0565281,38.3263329 44.2805292,38.415 C44.5045304,38.5036671 44.7565278,38.578333 45.0365292,38.639 C45.3165306,38.699667 45.5965278,38.7626663 45.8765292,38.828 C46.1751974,38.8933337 46.4668612,38.9726662 46.7515292,39.066 C47.0361973,39.1593338 47.2881948,39.2829992 47.5075292,39.437 C47.7268637,39.5910008 47.9041952,39.7846655 48.0395292,40.018 C48.1748633,40.2513345 48.2425292,40.5406649 48.2425292,40.886 C48.2425292,41.3246689 48.1515302,41.6886652 47.9695292,41.978 C47.7875283,42.2673348 47.5495307,42.5006658 47.2555292,42.678 C46.9615278,42.8553342 46.6301978,42.9789996 46.2615292,43.049 C45.8928607,43.1190004 45.5265311,43.154 45.1625292,43.154 C44.7611939,43.154 44.3785311,43.1120004 44.0145292,43.028 C43.6505274,42.9439996 43.3285306,42.8063343 43.0485292,42.615 C42.7685278,42.4236657 42.5445301,42.1716682 42.3765292,41.859 C42.2085284,41.5463318 42.115196,41.1660022 42.0965292,40.718 L43.2865292,40.718 Z M50.8728821,35.762 L52.3148821,35.762 L52.3148821,36.812 L50.8728821,36.812 L50.8728821,41.306 C50.8728821,41.4460007 50.8845486,41.5579996 50.9078821,41.642 C50.9312155,41.7260004 50.9755484,41.7913331 51.0408821,41.838 C51.1062157,41.8846669 51.1972148,41.9149999 51.3138821,41.929 C51.4305493,41.9430001 51.5822145,41.95 51.7688821,41.95 L52.3148821,41.95 L52.3148821,43 L51.4048821,43 C51.0968805,43 50.8332165,42.9790002 50.6138821,42.937 C50.3945476,42.8949998 50.2172161,42.8180006 50.0818821,42.706 C49.9465481,42.5939994 49.8462157,42.4353344 49.7808821,42.23 C49.7155484,42.0246656 49.6828821,41.7540017 49.6828821,41.418 L49.6828821,36.812 L48.4508821,36.812 L48.4508821,35.762 L49.6828821,35.762 L49.6828821,33.592 L50.8728821,33.592 L50.8728821,35.762 Z" id="Click&amp;Invest" fill="#FEA867" fill-rule="nonzero"></path>
                </g>
            </g>
        </g>
    </g>
</svg>