<?xml version="1.0" encoding="UTF-8"?>
<svg width="49px" height="58px" viewBox="0 0 49 58" version="1.1" xmlns="http://www.w3.org/2000/svg" xmlns:xlink="http://www.w3.org/1999/xlink">
    <!-- Generator: Sketch 53.2 (72643) - https://sketchapp.com -->
    <title>Group 28</title>
    <desc>Created with Sketch.</desc>
    <g id="Welcome" stroke="none" stroke-width="1" fill="none" fill-rule="evenodd">
        <g id="Homepage-mobile" transform="translate(-31.000000, -2553.000000)">
            <g id="Group-30" transform="translate(20.000000, 2498.000000)">
                <g id="Group-28" transform="translate(35.089218, 84.089218) scale(-1, 1) rotate(7.000000) translate(-35.089218, -84.089218) translate(8.089218, 57.089218)">
                    <polygon id="Rectangle" fill="#14313F" points="11.6689923 18.6241121 17.9504152 13.2170674 47.6689923 42.2770048 41.4095477 48.2170674"></polygon>
                    <path d="M46.7536469,53.4492982 C42.8876536,53.4492982 39.7536469,50.7630067 39.7536469,47.4492982 C39.7536469,44.1355897 42.8876536,41.4492982 46.7536469,41.4492982 C50.6196401,41.4492982 53.7536469,44.1355897 53.7536469,47.4492982 C53.7536469,50.7630067 50.6196401,53.4492982 46.7536469,53.4492982 Z M47.8353331,44.5407511 L44.5344604,45.244279 L43.5111595,48.1131933 L45.7887312,50.2785797 L49.0896039,49.5750518 L50.1129048,46.7061375 L47.8353331,44.5407511 Z" id="Combined-Shape" fill="#14313F"></path>
                    <path d="M0.672309966,7.52814415 L7.88948222,14.8700634 L13.6892201,13.9906067 L14.2340793,8.65525587 L7.23303027,1.12565748 C8.27642156,0.778211077 9.392606,0.590063422 10.5527347,0.590063422 C16.3517245,0.590063422 21.0527347,5.29107355 21.0527347,11.0900634 C21.0527347,16.8890533 16.3517245,21.5900634 10.5527347,21.5900634 C4.7537448,21.5900634 0.052734673,16.8890533 0.052734673,11.0900634 C0.052734673,9.83966821 0.27129991,8.64032165 0.672309966,7.52814415 Z" id="Combined-Shape" fill="#3788B7"></path>
                </g>
            </g>
        </g>
    </g>
</svg>