<?xml version="1.0" encoding="UTF-8"?>
<svg width="35px" height="35px" viewBox="0 0 35 35" version="1.1" xmlns="http://www.w3.org/2000/svg" xmlns:xlink="http://www.w3.org/1999/xlink">
    <!-- Generator: Sketch 53.2 (72643) - https://sketchapp.com -->
    <title>Github</title>
    <desc>Created with Sketch.</desc>
    <g id="Welcome" stroke="none" stroke-width="1" fill="none" fill-rule="evenodd">
        <g id="Homepage" transform="translate(-220.000000, -604.000000)" fill="#CC1100">
            <g id="Group-44" transform="translate(100.000000, 604.000000)">
                <g id="Github" transform="translate(120.000000, 0.000000)">
                    <path d="M13.9450347,27.6872511 C13.7676157,27.4522283 13.478027,27.3183684 13.1509051,27.3527846 C13.1509051,27.3527846 11.8969147,27.5683237 11.0631137,27.2499508 C10.2428157,26.9367337 8.97715569,24.7176149 8.31023021,24.3729267 C7.64330473,24.0282385 7.67797165,23.9754127 6.97670941,23.9754127 C5.62962748,23.9754127 7.48020513,25.2495045 8.31023021,26.0666533 C9.14025529,26.8838021 9.08082629,28.1611955 10.4051026,28.834394 C11.7293789,29.5075926 13.1246929,29.3666492 13.1246929,29.3666492 C13.4665315,29.3705806 13.7644507,29.2000638 13.9450347,28.9405716 L13.9450347,32.7395022 C13.9450347,33.5191641 13.4094951,34.0460966 12.922861,34.3953475 C5.47776916,32.3832642 0,25.5813329 0,17.5 C0,7.83501688 7.83501688,0 17.5,0 C27.1649831,0 35,7.83501688 35,17.5 C35,25.4060509 29.7572765,32.0875982 22.5587728,34.2576986 C22.1880967,33.9122733 21.8236651,33.4231491 21.8236651,32.7395022 L21.8236651,27.1249614 C21.8236651,25.9491274 21.2208776,24.9111696 20.3065863,24.3046386 L21.0135352,24.3046386 C24.870725,24.3046386 28.0140176,21.1692315 28.0140176,17.3015109 L28.0140176,15.5505056 C28.0140176,13.4258745 27.0699251,11.5239037 25.5788709,10.2401681 C25.8101103,9.49411153 26.0327123,8.19312613 25.3387475,7 C23.9933534,7 22.484939,8.03340388 21.7722983,8.58799464 C21.523063,8.56114932 21.2699085,8.54737783 21.0135352,8.54737783 L14.7551647,8.54737783 C14.5409243,8.54737783 14.3288864,8.55705068 14.1194671,8.57598461 C13.4006517,8.01862887 11.9042205,7 10.5684788,7 C9.90159102,8.14657302 10.0811406,9.39275266 10.3013815,10.1503446 C8.7472838,11.4348534 7.75468227,13.377053 7.75468227,15.5505056 L7.75468227,17.3015109 C7.75468227,21.1726713 10.888905,24.3046386 14.7551647,24.3046386 L15.4619465,24.3046386 C14.5482943,24.9105772 13.9450347,25.9475249 13.9450347,27.1249614 L13.9450347,27.6872511 Z" id="Combined-Shape"></path>
                </g>
            </g>
        </g>
    </g>
</svg>