<?xml version="1.0" encoding="UTF-8"?>
<svg width="35px" height="35px" viewBox="0 0 35 35" version="1.1" xmlns="http://www.w3.org/2000/svg" xmlns:xlink="http://www.w3.org/1999/xlink">
    <!-- Generator: Sketch 53.2 (72643) - https://sketchapp.com -->
    <title>Group 31</title>
    <desc>Created with Sketch.</desc>
    <g id="Welcome" stroke="none" stroke-width="1" fill="none" fill-rule="evenodd">
        <g id="Homepage" transform="translate(-165.000000, -604.000000)">
            <g id="Group-44" transform="translate(100.000000, 604.000000)">
                <g id="Group-31" transform="translate(65.000000, 0.000000)">
                    <path d="M34.8387512,6.53226585 L34.8387512,28.3064854 C34.8387512,31.9128405 31.9128405,34.8387512 28.3064854,34.8387512 L6.53226585,34.8387512 C2.92591075,34.8387512 0,31.9128405 0,28.3064854 L0,6.53226585 C0,2.92591075 2.92591075,0 6.53226585,0 L28.3064854,0 C31.9128405,0 34.8387512,2.92591075 34.8387512,6.53226585 Z" id="Path" fill="#CC1100"></path>
                    <path d="M11.2903226,12.4193548 L11.2903226,29.3548387 L4.51612903,29.3548387 L4.51612903,12.4193548 L11.2903226,12.4193548 Z M11.2901343,7.90322581 C11.3084424,9.78494624 9.99025762,11.2903226 7.88482355,11.2903226 L7.8482073,11.2903226 C5.81600572,11.2903226 4.51612903,9.78494624 4.51612903,7.90322581 C4.51612903,5.98189021 5.87093009,4.51612903 7.92143979,4.51612903 C9.99025762,4.51612903 11.2718262,5.98189021 11.2901343,7.90322581 Z M19.092441,15.1560083 C19.8239865,14.0225737 21.1436635,12.4193548 24.0972557,12.4193548 C27.7539721,12.4193548 30.483871,14.7909906 30.483871,19.8682955 L30.483871,29.3548387 L24.939817,29.3548387 L24.939817,20.5029586 C24.939817,18.2816377 24.1309581,16.7617866 22.125662,16.7617866 C20.5922003,16.7617866 19.682234,17.7805879 19.2778045,18.7659859 C19.1429947,19.1334224 19.092441,19.6177706 19.092441,20.1188204 L19.092441,29.3548387 L13.5483871,29.3548387 C13.615792,14.3567475 13.5483871,12.803493 13.5483871,12.803493 L19.092441,12.803493 L19.092441,15.1560083 L19.092441,15.1560083 Z" id="" fill="#FFFFFF"></path>
                </g>
            </g>
        </g>
    </g>
</svg>