<?xml version="1.0" encoding="UTF-8"?>
<svg width="28px" height="29px" viewBox="0 0 28 29" version="1.1" xmlns="http://www.w3.org/2000/svg" xmlns:xlink="http://www.w3.org/1999/xlink">
    <!-- Generator: Sketch 56 (81588) - https://sketch.com -->
    <title>Measured-3</title>
    <desc>Created with Sketch.</desc>
    <g id="Welcome" stroke="none" stroke-width="1" fill="none" fill-rule="evenodd">
        <g id="Performance-Click-only---desktop" transform="translate(-624.000000, -607.000000)" fill="#FFFFFF" fill-rule="nonzero" stroke="#FF9E55">
            <g id="Group-14" transform="translate(172.000000, 540.000000)">
                <g id="Group_4683" transform="translate(8.000000, 6.000000)">
                    <g id="Measured" transform="translate(416.500000, 48.000000)">
                        <g id="Group_4692" transform="translate(27.000000, 13.000000)">
                            <g id="Measured-3">
                                <path d="M14.3706554,27.9991879 C15.3012993,28.0089563 16.2307783,27.9306068 17.1466554,27.7651897 C21.8242418,26.8153211 25.6525764,23.4660511 27.2156554,18.9561897 C27.7572667,17.4691047 27.9903366,15.8872916 27.9006554,14.3071897 C27.9536762,13.272515 27.8422932,12.2359775 27.5706554,11.2361897 C26.8987913,8.6418755 25.4912956,6.2970911 23.5176554,4.48418968 C21.5641505,2.70310086 19.1244499,1.54417346 16.5096554,1.15518968 C15.8241689,1.05169884 15.1319099,0.999553783 14.4386554,0.999187939 C9.93597648,0.996912545 5.72696363,3.23392285 3.20965535,6.96718968 C2.35876259,8.23132028 1.72284517,9.62750028 1.32765535,11.0991897 C1.03472488,12.2044765 0.927264882,13.3507165 1.00965535,14.4911897 C0.923141271,15.6433256 1.03475746,16.8017664 1.33965535,17.9161897 C1.97599449,20.2968281 3.24405607,22.4611708 5.00965535,24.1801897 C5.98258463,25.1304717 7.08930324,25.9333059 8.29465535,26.5631897 C9.47600699,27.1757046 10.7450188,27.6017444 12.0566554,27.8261897 C12.8216907,27.9493415 13.5958127,28.0072166 14.3706554,27.9991879 Z M14.4556554,1.66918968 C15.5140914,1.59701257 16.5771091,1.70453153 17.5996554,1.98718968 C19.9099072,2.58143872 22.0077084,3.81046754 23.6556554,5.53518968 C25.2589537,7.1381886 26.3964879,9.14676092 26.9466554,11.3461897 C28.0533903,15.7460416 26.7716163,20.4040015 23.5696554,23.6181897 C21.7329148,25.4584316 19.3908162,26.7114491 16.8406554,27.2181897 C16.0962599,27.3421134 15.342208,27.3986757 14.5876554,27.3871897 C13.6828456,27.3983158 12.7789595,27.3253353 11.8876554,27.1691897 C6.76882165,26.1362658 2.77533846,22.123052 1.76765535,16.9991897 C1.437162,15.0900101 1.49943038,13.1334902 1.95065535,11.2491897 C2.3104634,9.89205963 2.88941064,8.60277048 3.66465535,7.43218968 C5.46804106,4.76504123 8.16815733,2.83309208 11.2746554,1.98718968 C12.3102905,1.70700345 13.3850497,1.59956131 14.4556554,1.66918968 Z" id="Shape-4" transform="translate(14.450328, 14.499595) rotate(180.000000) translate(-14.450328, -14.499595) "></path>
                                <path d="M14.364,6.1885755 C14.364,5.1635755 14.351,5.1365755 14.082,5.1725755 C13.813,5.2085755 13.813,5.2705755 13.813,6.1885755 C13.813,7.1065755 13.825,7.1635755 14.082,7.2035755 C14.339,7.2435755 14.364,7.2155755 14.364,6.1885755 Z" id="Shape-5" transform="translate(14.313000, 6.188788) rotate(180.000000) translate(-14.313000, -6.188788) "></path>
                                <path d="M11.2355826,7.78701472 C11.3825826,7.62801472 11.3355826,7.32201472 11.0035826,6.55101472 C10.7745826,6.00101472 10.6155826,5.78101472 10.4445826,5.78101472 C10.1265826,5.78101472 10.1755826,6.30701472 10.5665826,7.11501472 C10.8965826,7.76301472 11.0685826,7.94601472 11.2355826,7.78701472 Z" id="Shape-6" transform="translate(10.775291, 6.811007) rotate(180.000000) translate(-10.775291, -6.811007) "></path>
                                <path d="M17.6412091,7.38157426 C17.7272091,7.14857426 17.8992091,6.74557426 17.9992091,6.50057426 C18.1702091,6.10957426 18.1702091,6.02357426 18.0112091,5.87657426 C17.9112091,5.77857426 17.7762091,5.72957426 17.7152091,5.77857426 C17.3564954,6.34483364 17.1150625,6.97731982 17.0052091,7.63857426 C17.1282091,7.95957426 17.4582091,7.80957426 17.6412091,7.38157426 Z" id="Shape-7" transform="translate(17.567105, 6.785287) rotate(180.000000) translate(-17.567105, -6.785287) "></path>
                                <path d="M8.91396581,9.48421029 C9.11396581,9.28421029 8.96296581,8.97021029 8.41396581,8.43221029 C8.19617804,8.1803529 7.92210427,7.98336237 7.61396581,7.85721029 C7.22696581,7.85721029 7.41396581,8.28521029 8.05896581,8.93421029 C8.70396581,9.58321029 8.78096581,9.63121029 8.91396581,9.48421029 Z" id="Shape-8" transform="translate(8.205983, 8.705105) rotate(180.000000) translate(-8.205983, -8.705105) "></path>
                                <path d="M20.9543957,9.16548991 C21.5903957,8.56648991 21.7863957,8.01548991 21.3453957,8.01548991 C21.0393957,8.01548991 19.9383957,9.15348991 19.9973957,9.42248991 C20.0733957,9.82648991 20.3303957,9.75248991 20.9543957,9.16548991 Z" id="Shape-9" transform="translate(20.789198, 8.845745) rotate(180.000000) translate(-20.789198, -8.845745) "></path>
                                <path d="M13.1187964,23.269834 C13.3434156,23.2796276 13.5579333,23.1759378 13.6897964,22.993834 C14.0154186,21.4480648 14.2402258,19.8827653 14.3627964,18.307834 C14.5987964,16.276834 14.8947964,13.893834 14.9497964,13.866834 C15.4973214,13.651664 15.9705112,13.2820062 16.3117964,12.802834 C16.7132954,12.0210449 16.6553688,11.082328 16.1607964,10.355834 C15.7479239,9.83232482 15.1133767,9.53282151 14.4467964,9.54683397 C13.7660151,9.53731157 13.1197026,9.84567806 12.6987964,10.380834 C12.352425,10.903116 12.2276134,11.5415619 12.3517964,12.155834 C12.4097231,12.6547957 12.667314,13.1090071 13.0657964,13.414834 L13.3467964,13.597834 L12.8337964,18.087834 C12.6054819,19.6650713 12.4662611,21.2539252 12.4167964,22.846834 C12.5456509,23.1150765 12.8214294,23.2812507 13.1187964,23.269834 L13.1187964,23.269834 Z M14.4357964,10.146834 C15.0394269,10.1374212 15.5911859,10.4868237 15.8407551,11.0365269 C16.0903242,11.58623 15.9901962,12.2315939 15.5857964,12.679834 C15.3804621,12.9150932 15.1200361,13.095811 14.8277964,13.205834 C14.646103,13.2383488 14.4815596,13.3335363 14.3627964,13.474834 C14.2987964,13.574834 14.0217964,15.834834 13.7757964,18.025834 C13.5007964,20.485834 13.2487964,22.468834 13.2007964,22.539834 C13.1527964,22.610834 13.1307964,22.631834 13.1067964,22.631834 C13.0978756,22.631834 13.0894462,22.627738 13.0837964,22.620834 C12.9727964,22.496834 13.0597964,21.391834 13.4567964,17.890834 L13.9837964,13.316834 L13.4457964,12.802834 C12.9767964,12.359834 12.9117964,12.224834 12.9117964,11.774834 C12.8792388,11.3520411 13.0257183,10.9350073 13.3155121,10.6254376 C13.6053059,10.3158678 14.011777,10.1422168 14.4357964,10.146834 Z" id="Shape-10" transform="translate(14.440898, 16.408417) rotate(180.000000) translate(-14.440898, -16.408417) "></path>
                                <path d="M22.6100607,11.8624018 C23.1850607,11.6054018 23.4100607,11.4624018 23.4300607,11.2624018 C23.4910607,10.8974018 23.2100607,10.9074018 22.2560607,11.3114018 C21.7420607,11.5434018 21.4970607,11.7154018 21.4970607,11.8494018 C21.4970607,12.2044018 21.7780607,12.2044018 22.6100607,11.8624018 Z" id="Shape-11" transform="translate(22.467530, 11.557701) rotate(180.000000) translate(-22.467530, -11.557701) "></path>
                                <path d="M7.18257134,12.0786556 C7.41457134,11.8096556 7.28257134,11.6996556 6.33857134,11.3196556 C5.70157134,11.0786556 5.43257134,11.0276556 5.33457134,11.1256556 C5.10257134,11.3586556 5.31057134,11.5906556 5.99557134,11.8476556 C6.35057134,11.9946556 6.72957134,12.1416556 6.83957134,12.1776556 C6.96336762,12.2191834 7.0999439,12.1797634 7.18257134,12.0786556 Z" id="Shape-12" transform="translate(6.262786, 11.636328) rotate(180.000000) translate(-6.262786, -11.636328) "></path>
                            </g>
                        </g>
                    </g>
                </g>
            </g>
        </g>
    </g>
</svg>