<?xml version="1.0" encoding="UTF-8"?>
<svg width="88px" height="88px" viewBox="0 0 88 88" version="1.1" xmlns="http://www.w3.org/2000/svg" xmlns:xlink="http://www.w3.org/1999/xlink">
    <!-- Generator: Sketch 53.2 (72643) - https://sketchapp.com -->
    <title>Group 46</title>
    <desc>Created with Sketch.</desc>
    <defs>
        <circle id="path-1" cx="30" cy="30" r="30"></circle>
        <filter x="-37.5%" y="-32.5%" width="175.0%" height="175.0%" filterUnits="objectBoundingBox" id="filter-2">
            <feOffset dx="0" dy="3" in="SourceAlpha" result="shadowOffsetOuter1"></feOffset>
            <feGaussianBlur stdDeviation="7" in="shadowOffsetOuter1" result="shadowBlurOuter1"></feGaussianBlur>
            <feColorMatrix values="0 0 0 0 0   0 0 0 0 0   0 0 0 0 0  0 0 0 0.3 0" type="matrix" in="shadowBlurOuter1"></feColorMatrix>
        </filter>
        <linearGradient x1="72.2887359%" y1="77.9851536%" x2="56.3813923%" y2="10.655774%" id="linearGradient-3">
            <stop stop-color="#A2CBC9" offset="0%"></stop>
            <stop stop-color="#699B99" offset="100%"></stop>
        </linearGradient>
        <linearGradient x1="70.7689876%" y1="68.9506406%" x2="26.367431%" y2="41.9054252%" id="linearGradient-4">
            <stop stop-color="#E8E8E8" offset="0%"></stop>
            <stop stop-color="#CCCCCC" offset="100%"></stop>
        </linearGradient>
    </defs>
    <g id="Welcome" stroke="none" stroke-width="1" fill="none" fill-rule="evenodd">
        <g id="Homepage" transform="translate(-52.000000, -1885.000000)">
            <g id="Group-39" transform="translate(66.000000, 1896.000000)">
                <g id="Group-46">
                    <g id="Oval">
                        <use fill="black" fill-opacity="1" filter="url(#filter-2)" xlink:href="#path-1"></use>
                        <use fill="#F7F7F7" fill-rule="evenodd" xlink:href="#path-1"></use>
                    </g>
                    <g id="Group-3" transform="translate(10.000000, 10.000000)" stroke-width="26">
                        <path d="M23.683954,14.0120778 C22.6963634,13.4025104 21.5472872,13.0388812 20.3206936,13.0029427 C20.2475959,13.0246065 20.1574504,13.0578758 20.0615392,13.1012862 C19.9544696,13.149747 19.8602541,13.2015332 19.7866513,13.2462524 C19.7621305,13.396006 19.746988,13.5826956 19.746988,13.7800087 C19.746988,13.8605316 19.7583966,13.9170019 19.7817254,13.9696342 C19.8013994,13.9833142 19.8203838,13.9964201 19.8386865,14.0089643 C19.9197905,14.0109278 20.0132005,14.0120778 20.1195946,14.0120778 L23.683954,14.0120778 Z M20.3206936,13.0029427 C20.2587609,13.0011281 20.1966306,13.000149 20.1343134,13.0000157 C20.2773518,12.9985751 20.3433947,12.9925195 20.3718574,12.9882344 C20.3465469,12.9954945 20.3338984,12.9990293 20.3206936,13.0029427 Z M20.1343134,13.0000157 C20.1294083,13.0000052 20.124502,13 20.1195946,13 C20.1343169,13 20.148357,12.9999249 20.1617336,12.9997849 Z M20.3718574,12.9882344 C20.3773211,12.9874118 20.3814,12.9866545 20.384179,12.9860092 C20.3760013,12.9879081 20.3674569,12.9900219 20.3585726,12.9923471 Z M19.7866513,13.2462524 C19.7117079,13.2917861 19.6581348,13.3299931 19.6341222,13.3499028 C19.7625963,13.1966907 19.8203158,13.0851406 19.8244702,13.0705219 C19.8103441,13.1202295 19.7975682,13.1795804 19.7866513,13.2462524 Z M19.6341222,13.3499028 C19.628273,13.3547526 19.6241778,13.3585167 19.6219549,13.3610366 C19.6286235,13.353477 19.6351179,13.3459906 19.6414396,13.3385867 Z M19.7817254,13.9696342 C19.7859877,13.9792506 19.790648,13.9887388 19.7957093,13.9982221 C19.7952087,13.9972843 19.7601245,13.9568041 19.569772,13.8190706 C19.6477587,13.8754995 19.7183228,13.9255482 19.7817254,13.9696342 Z M19.8386865,14.0089643 C19.9779472,14.10441 20.0777392,14.1673389 20.1415004,14.2032447 C20.0577808,14.1625111 19.9556025,14.1198225 19.8308415,14.078542 C19.6744622,14.0267997 19.5398889,13.9964488 19.4714292,13.9873248 C19.5372579,13.9960981 19.6571424,14.0045692 19.8386865,14.0089643 Z M20.1415004,14.2032447 C20.1451571,14.2053039 20.1486953,14.2072742 20.1521156,14.2091567 C20.1430138,14.2041473 20.1317172,14.1983442 20.1184256,14.1919024 Z M7.11959458,30.4787444 L7.11959458,20.0666667 L20.1195946,20.0666667 C20.0957489,20.0666667 20.1081261,20.054215 20.1081261,20 C20.1081261,19.945785 20.0957489,19.9333333 20.1195946,19.9333333 C21.9248581,19.9333333 23.1734223,19.428484 24.6229107,17.7853066 C25.9548514,16.2753841 26.381392,14.9508877 26.381392,13.7800087 C26.381392,11.6677625 25.4380371,9.70998442 23.4287654,8.25613345 C23.0896194,8.01073718 22.3430286,7.62036935 21.2012092,7.3250684 C20.6267476,7.17649934 20.1309573,7.1052668 19.7253906,7.08044252 C19.6714341,7.0771399 19.7781504,7.07874444 20.1195946,7.07874444 L33.1195946,7.07874444 L33.1195946,30.4787444 L7.11959458,30.4787444 Z" id="Path" stroke="url(#linearGradient-3)"></path>
                        <path d="M16.936966,14.0120778 C15.9493754,13.4025104 14.8002992,13.0388812 13.5737057,13.0029427 C13.5006079,13.0246065 13.4104624,13.0578758 13.3145513,13.1012862 C13.2074817,13.149747 13.1132662,13.2015332 13.0396633,13.2462524 C13.0151425,13.396006 13,13.5826956 13,13.7800087 C13,13.8605316 13.0114087,13.9170019 13.0347374,13.9696342 C13.0544114,13.9833142 13.0733959,13.9964201 13.0916986,14.0089643 C13.1728025,14.0109278 13.2662125,14.0120778 13.3726066,14.0120778 L16.936966,14.0120778 Z M13.5737057,13.0029427 C13.5117729,13.0011281 13.4496426,13.000149 13.3873255,13.0000157 C13.5303638,12.9985751 13.5964068,12.9925195 13.6248694,12.9882344 C13.5995589,12.9954945 13.5869105,12.9990293 13.5737057,13.0029427 Z M13.3873255,13.0000157 C13.3824203,13.0000052 13.3775141,13 13.3726066,13 C13.3873289,13 13.4013691,12.9999249 13.4147456,12.9997849 Z M13.6248694,12.9882344 C13.6303331,12.9874118 13.6344121,12.9866545 13.637191,12.9860092 C13.6290134,12.9879081 13.620469,12.9900219 13.6115846,12.9923471 Z M13.0396633,13.2462524 C12.9647199,13.2917861 12.9111468,13.3299931 12.8871342,13.3499028 C13.0156083,13.1966907 13.0733278,13.0851406 13.0774822,13.0705219 C13.0633561,13.1202295 13.0505803,13.1795804 13.0396633,13.2462524 Z M12.8871342,13.3499028 C12.881285,13.3547526 12.8771898,13.3585167 12.874967,13.3610366 C12.8816355,13.353477 12.8881299,13.3459906 12.8944516,13.3385867 Z M13.0347374,13.9696342 C13.0389998,13.9792506 13.04366,13.9887388 13.0487213,13.9982221 C13.0482208,13.9972843 13.0131366,13.9568041 12.8227841,13.8190706 C12.9007708,13.8754995 12.9713348,13.9255482 13.0347374,13.9696342 Z M13.0916986,14.0089643 C13.2309593,14.10441 13.3307512,14.1673389 13.3945124,14.2032447 C13.3107929,14.1625111 13.2086145,14.1198225 13.0838535,14.078542 C12.9274743,14.0267997 12.792901,13.9964488 12.7244413,13.9873248 C12.7902699,13.9960981 12.9101544,14.0045692 13.0916986,14.0089643 Z M13.3945124,14.2032447 C13.3981691,14.2053039 13.4017073,14.2072742 13.4051277,14.2091567 C13.3960258,14.2041473 13.3847293,14.1983442 13.3714376,14.1919024 Z M0.372606626,30.4787444 L0.372606626,20.0666667 L13.3726066,20.0666667 C13.348761,20.0666667 13.3611382,20.054215 13.3611382,20 C13.3611382,19.945785 13.348761,19.9333333 13.3726066,19.9333333 C15.1778702,19.9333333 16.4264344,19.428484 17.8759227,17.7853066 C19.2078635,16.2753841 19.6344041,14.9508877 19.6344041,13.7800087 C19.6344041,11.6677625 18.6910492,9.70998442 16.6817775,8.25613345 C16.3426315,8.01073718 15.5960407,7.62036935 14.4542212,7.3250684 C13.8797597,7.17649934 13.3839694,7.1052668 12.9784027,7.08044252 C12.9244461,7.0771399 13.0311624,7.07874444 13.3726066,7.07874444 L26.3726066,7.07874444 L26.3726066,30.4787444 L0.372606626,30.4787444 Z" id="Path" stroke="url(#linearGradient-4)" transform="translate(16.626506, 20.000000) scale(-1, -1) translate(-16.626506, -20.000000) "></path>
                        <path d="M20.2409639,0 L20.2409639,6.90665013 L7.24096386,6.90665013 L7.24096386,-5.34965889e-14 L20.2409639,0 Z M19.7766619,13.2784866 C19.6915117,13.3297572 19.6313551,13.3728182 19.6058078,13.3948016 C19.7425819,13.2344429 19.8080996,13.1090905 19.8174828,13.0764952 C19.8018943,13.1306463 19.7879509,13.199414 19.7766619,13.2784866 Z M19.6058078,13.3948016 C19.6009729,13.3989621 19.5973776,13.4023676 19.5950871,13.4049309 C19.6019587,13.3972409 19.6086662,13.3895999 19.6152104,13.3820176 Z M19.7613323,13.8255255 C19.7654982,13.8366371 19.7706741,13.8475673 19.7769897,13.8592494 C19.7727179,13.8513479 19.7372782,13.8109812 19.5524957,13.6789904 C19.6288511,13.7335314 19.6983819,13.7822535 19.7613323,13.8255255 Z M19.8753276,13.9027763 C19.9962796,13.9834454 20.0856416,14.0384808 20.1460768,14.0719045 C20.0729678,14.0370986 19.9798138,13.9987402 19.8652943,13.9613336 C19.7225159,13.9146966 19.6025939,13.8879965 19.5497087,13.8810385 C19.615446,13.8896875 19.7222705,13.8977382 19.8753276,13.9027763 Z M20.1460768,14.0719045 C20.1491228,14.0735891 20.1520954,14.0752188 20.1549948,14.0767941 C20.1474276,14.0726827 20.1376078,14.067736 20.1257506,14.0621161 Z M20.2409639,30.3614458 L9.94833125,30.3614458 C9.40961496,30.0357988 8.87437129,29.6802932 8.3340717,29.2943553 C7.95777254,29.0255635 7.59328204,28.7430254 7.24096386,28.4477458 L7.24096386,20.0014706 L20.2409639,20.0014706 L20.2409639,30.3614458 Z M33.2409639,7.00147059 L33.2409639,19.9066501 L20.2409639,19.9066501 C21.9969647,19.9066501 23.1983996,19.4270794 24.6414313,17.8121739 C25.9982506,16.2937492 26.4416057,14.9346737 26.4416057,13.7269758 C26.4416057,11.5705792 25.4721343,9.58437069 23.4465131,8.1374625 C23.1192929,7.90372793 22.3848133,7.5246115 21.2637287,7.23838665 C20.701743,7.09490574 20.2185067,7.02636614 19.8258383,7.00263919 C19.7791163,6.99981602 19.890588,7.00147059 20.2409639,7.00147059 L33.2409639,7.00147059 Z" id="Path" stroke="#699B99"></path>
                    </g>
                </g>
            </g>
        </g>
    </g>
</svg>